<?xml version="1.0" encoding="utf-8"?>
<!-- Generator: Adobe Illustrator 16.0.0, SVG Export Plug-In . SVG Version: 6.00 Build 0)  -->
<!DOCTYPE svg PUBLIC "-//W3C//DTD SVG 1.1//EN" "http://www.w3.org/Graphics/SVG/1.1/DTD/svg11.dtd">
<svg version="1.1" id="Layer_1" xmlns="http://www.w3.org/2000/svg" xmlns:xlink="http://www.w3.org/1999/xlink" x="0px" y="0px"
	 width="1000px" height="1000px" viewBox="0 0 1000 1000" enable-background="new 0 0 1000 1000" xml:space="preserve">
<polyline fill="#414042" points="548.084,638.611 539.705,600.916 533.918,638.611 "/>
<path fill="#E6E7E8" d="M565,448c0-7.083-19.987-13-24.079-13h-93.846c-4.091,0-7.409,5.742-7.409,12.825v191.961
	c0,7.083,3.317,12.825,7.409,12.825h93.846c4.092,0,7.409-5.742,7.409-12.825L565,448z"/>
<path fill="#E6E7E8" d="M335.167,448.001c0-7.083,20.067-13,24.175-13h94.22c4.108,0,7.438,5.742,7.438,12.825v191.96
	c0,7.082-3.331,12.824-7.438,12.824h-94.22c-4.108,0-7.438-5.742-7.438-12.824L335.167,448.001z"/>
<g id="Layer_2">
</g>
<g>
	<defs>
		<rect id="SVGID_1_" width="1000" height="1000"/>
	</defs>
	<clipPath id="SVGID_2_">
		<use xlink:href="#SVGID_1_"  overflow="visible"/>
	</clipPath>
	<g clip-path="url(#SVGID_2_)">
		<defs>
			<rect id="SVGID_3_" width="1000" height="1000"/>
		</defs>
		<clipPath id="SVGID_4_">
			<use xlink:href="#SVGID_3_"  overflow="visible"/>
		</clipPath>
	</g>
	<g clip-path="url(#SVGID_2_)">
		<defs>
			<rect id="SVGID_5_" x="389.579" y="458.166" width="120.644" height="118.667"/>
		</defs>
		<clipPath id="SVGID_6_">
			<use xlink:href="#SVGID_5_"  overflow="visible"/>
		</clipPath>
		<path clip-path="url(#SVGID_6_)" fill="#C49A6C" d="M492.952,522.66c0-66.84-55.747-40.915-69.271-39.806
			c-26.07,2.136-20.551,47.573-20.551,52.018c5.818,18.707,23.414,34.148,44.036,34.148
			C472.059,569.021,492.184,547.368,492.952,522.66"/>
		<path clip-path="url(#SVGID_6_)" fill="none" stroke="#C49A6C" stroke-width="0.791" stroke-miterlimit="10" d="M492.952,522.66
			c0-66.84-55.747-40.915-69.271-39.806c-26.07,2.136-20.551,47.573-20.551,52.018c5.818,18.707,23.414,34.148,44.036,34.148
			C472.059,569.021,492.184,547.368,492.952,522.66"/>
		<path clip-path="url(#SVGID_6_)" fill="#2E2E2F" d="M441.095,483.953c12.321-6.618,19.305-5.785,29.554-1.268
			c7.808,3.441,16.107,13.967,18.415,22.76C476.793,488.744,452.346,483.212,441.095,483.953"/>
		<path clip-path="url(#SVGID_6_)" fill="none" stroke="#2E2E2F" stroke-width="0.791" stroke-miterlimit="10" d="M441.095,483.953
			c12.321-6.618,19.305-5.785,29.554-1.268c7.808,3.441,16.107,13.967,18.415,22.76
			C476.793,488.744,452.346,483.212,441.095,483.953z"/>
		
			<line clip-path="url(#SVGID_6_)" fill="none" stroke="#000000" stroke-width="2.373" stroke-miterlimit="10" x1="401.391" y1="522.22" x2="496.681" y2="522.22"/>
		<path clip-path="url(#SVGID_6_)" d="M435.169,522.22c0-6.252-5.068-11.319-11.32-11.319c-6.251,0-11.32,5.067-11.32,11.319
			c0,6.251,5.069,11.32,11.32,11.32C430.101,533.54,435.169,528.471,435.169,522.22"/>
		
			<circle clip-path="url(#SVGID_6_)" fill="none" stroke="#000000" stroke-width="0.791" stroke-miterlimit="10" cx="423.849" cy="522.22" r="11.32"/>
		<path clip-path="url(#SVGID_6_)" d="M481.406,522.22c0-6.252-5.068-11.319-11.32-11.319c-6.251,0-11.32,5.067-11.32,11.319
			c0,6.251,5.069,11.32,11.32,11.32C476.338,533.54,481.406,528.471,481.406,522.22"/>
		
			<circle clip-path="url(#SVGID_6_)" fill="none" stroke="#000000" stroke-width="0.791" stroke-miterlimit="10" cx="470.086" cy="522.22" r="11.32"/>
		<path clip-path="url(#SVGID_6_)" fill="none" stroke="#58595B" stroke-width="6.329" stroke-miterlimit="10" d="M398.516,510.9
			c0,0,14.212-44.065,49.281-39.318c14.711,1.99,36.716-2.776,48.884,32.71"/>
		<path clip-path="url(#SVGID_6_)" fill="#303030" d="M402.641,536.021c0,2.278-1.847,4.127-4.126,4.127
			c-2.278,0-4.125-1.849-4.125-4.127v-27.604c0-2.279,1.847-4.126,4.125-4.126c2.279,0,4.126,1.847,4.126,4.126V536.021z"/>
		<path clip-path="url(#SVGID_6_)" fill="#303030" d="M500.807,536.021c0,2.278-1.847,4.127-4.126,4.127
			c-2.278,0-4.125-1.849-4.125-4.127v-27.604c0-2.279,1.847-4.126,4.125-4.126c2.279,0,4.126,1.847,4.126,4.126V536.021z"/>
		<path clip-path="url(#SVGID_6_)" fill="#191919" d="M489.064,535.229c5.285-9.596,2.49-19.543,0.62-27.317
			c-4.947-20.555-28.343-35.499-46.609-23.853c-0.884,0.446-4.467,1.133-7.03,0c-4.353-1.925-7.185-5.746-7.185-11.033
			c0.282-9.406,16.85-13.426,28.554-11.884C485.63,464.858,522.011,498.891,489.064,535.229"/>
		<path clip-path="url(#SVGID_6_)" fill="#191919" d="M406.064,538.621c-26.525-35.904,14.699-78.651,26.526-56.518
			c2.017,2.885-12.257,10.733-14.079,12.165C408.26,500.012,401.016,515.319,406.064,538.621"/>
	</g>
	<polyline clip-path="url(#SVGID_2_)" fill="#603913" points="132.235,669.722 151.125,638.611 737.79,638.611 756.679,669.722 	"/>
	<rect x="132.235" y="669.723" clip-path="url(#SVGID_2_)" fill="#3C2415" width="624.443" height="11.109"/>
	<polygon clip-path="url(#SVGID_2_)" fill="#6D6E71" points="444.457,916.166 154.457,916.166 154.457,680.832 734.457,680.832 
		734.457,916.166 	"/>
	<polygon clip-path="url(#SVGID_2_)" fill="#D1D3D4" points="485.446,654.166 530.779,654.166 533.168,638.611 537.098,613.015 
		546.234,553.5 485.446,553.5 414.355,553.5 353.567,553.5 369.022,654.166 414.355,654.166 	"/>
	<g clip-path="url(#SVGID_2_)">
		<defs>
			<rect id="SVGID_7_" width="1000" height="1000"/>
		</defs>
		<clipPath id="SVGID_8_">
			<use xlink:href="#SVGID_7_"  overflow="visible"/>
		</clipPath>
		<rect x="189.568" y="637.5" clip-path="url(#SVGID_8_)" width="102.667" height="16"/>
		<rect x="202.901" y="622.833" clip-path="url(#SVGID_8_)" fill="#00A79D" width="102" height="14.667"/>
		<rect x="189.568" y="608.166" clip-path="url(#SVGID_8_)" fill="#FFF200" width="98.667" height="14.667"/>
		<polygon clip-path="url(#SVGID_8_)" fill="#414042" points="189.568,637.5 196.902,630.166 202.901,630.166 202.901,637.5 		"/>
		<polygon clip-path="url(#SVGID_8_)" fill="#006838" points="304.901,622.833 295.234,615.5 288.234,615.5 288.234,622.833 		"/>
		<polygon clip-path="url(#SVGID_8_)" fill="#F9ED32" points="189.568,608.166 200.902,601.166 276.568,601.166 288.235,608.166 		
			"/>
		<rect x="353.567" y="549.5" clip-path="url(#SVGID_8_)" fill="#808285" width="192.667" height="4"/>
	</g>
	<rect x="741.538" y="815.5" clip-path="url(#SVGID_2_)" fill="#58595B" width="126.227" height="100.666"/>
	<polygon clip-path="url(#SVGID_2_)" fill="#414042" points="849.098,779.5 751.761,779.5 741.538,815.5 867.765,815.5 	"/>
	<polyline clip-path="url(#SVGID_2_)" fill="#6D6E71" points="863.443,807.166 760.095,807.166 770.761,784.993 851.946,784.993 	
		"/>
	<polygon clip-path="url(#SVGID_2_)" fill="#58595B" points="851.946,784.993 764.428,784.993 760.094,807.166 782.26,807.166 	"/>
	<polyline clip-path="url(#SVGID_2_)" fill="#E6E7E8" points="789.511,807.166 849.261,789.416 859.511,807.166 	"/>
	<polyline clip-path="url(#SVGID_2_)" fill="#58595B" points="154.457,679.836 154.457,695.496 444.457,695.496 734.457,695.496 
		734.457,679.836 	"/>
</g>
<ellipse fill="#808285" cx="580.97" cy="645" rx="13.03" ry="3.194"/>
<ellipse fill="#808285" cx="580.97" cy="616.569" rx="13.03" ry="3.194"/>
<polyline fill="#808285" points="567.94,645 594,645 594,616.569 567.94,616.569 "/>
<ellipse fill="#3C2415" cx="580.97" cy="616.569" rx="10.155" ry="1.764"/>
<path fill="#808285" d="M594,621.791c-5.454,0-9.875,3.766-9.875,8.41s4.421,8.41,9.875,8.41s9.875-3.766,9.875-8.41
	S599.454,621.791,594,621.791z M594,636.226c-3.804,0-6.888-2.697-6.888-6.024s3.084-6.024,6.888-6.024s6.888,2.697,6.888,6.024
	S597.804,636.226,594,636.226z"/>
</svg>
