<?xml version="1.0" standalone="no"?>
<!DOCTYPE svg PUBLIC "-//W3C//DTD SVG 20010904//EN"
 "http://www.w3.org/TR/2001/REC-SVG-20010904/DTD/svg10.dtd">
<svg version="1.0" xmlns="http://www.w3.org/2000/svg"
 width="674.000000pt" height="674.000000pt" viewBox="0 0 674.000000 674.000000"
 preserveAspectRatio="xMidYMid meet">
<metadata>
Created by potrace 1.11, written by Peter Selinger 2001-2013
</metadata>
<g transform="translate(0.000000,674.000000) scale(0.100000,-0.100000)"
fill="#000000" stroke="none">
<path d="M4108 6318 c-19 -46 -43 -106 -53 -135 -10 -29 -21 -50 -24 -48 -7 4
-90 12 -201 21 -92 7 -325 6 -400 0 -30 -3 -82 -8 -115 -11 -33 -3 -71 -8 -85
-10 -14 -3 -41 -7 -60 -10 -19 -3 -70 -12 -113 -21 -43 -9 -80 -14 -81 -12
-11 16 -116 242 -116 250 0 13 -48 5 -165 -25 l-50 -13 3 -155 3 -154 -98 -39
c-109 -42 -388 -178 -413 -201 -9 -8 -20 -15 -24 -15 -8 0 -238 -149 -246
-160 -11 -14 -104 -80 -112 -80 -5 0 -69 52 -143 115 -74 63 -137 115 -140
115 -10 0 -165 -123 -165 -131 0 -4 38 -83 85 -175 47 -93 85 -173 85 -177 0
-5 -12 -21 -28 -35 -141 -136 -376 -453 -487 -656 -25 -47 -50 -84 -53 -82 -8
4 -65 21 -207 62 -49 14 -121 35 -159 46 -68 20 -70 20 -84 2 -21 -29 -82
-152 -82 -166 1 -7 32 -37 69 -66 38 -29 82 -65 99 -80 17 -15 59 -49 94 -77
35 -27 73 -59 85 -70 l23 -20 -30 -80 c-69 -183 -136 -450 -169 -675 l-17
-114 -35 -8 c-19 -3 -59 -9 -89 -12 -30 -3 -98 -12 -150 -20 -52 -8 -122 -17
-155 -21 -100 -11 -93 3 -99 -185 l-1 -35 210 2 c631 5 615 5 616 22 0 9 2 25
4 36 2 11 7 42 10 69 11 83 19 121 60 286 59 235 104 354 255 665 119 245 316
517 514 710 222 215 364 327 572 450 192 114 451 225 605 260 9 2 49 13 89 25
40 12 82 23 92 25 11 2 27 6 36 9 29 9 224 35 312 43 199 16 464 5 625 -27 55
-11 136 -27 180 -36 331 -65 705 -242 1010 -476 174 -134 305 -256 429 -398
60 -69 209 -265 265 -347 23 -35 45 -63 48 -63 3 0 40 19 82 41 42 23 101 55
131 72 30 16 78 42 105 57 28 15 70 38 95 52 25 13 123 66 217 118 l173 94
-27 46 c-49 85 -88 140 -98 140 -5 0 -92 -32 -193 -70 -101 -39 -186 -70 -190
-70 -4 0 -20 21 -37 48 -122 193 -371 483 -549 639 -56 49 -58 29 25 232 33
80 56 148 52 152 -5 3 -46 32 -93 63 l-84 56 -121 -120 c-105 -105 -122 -118
-135 -106 -21 20 -178 114 -285 170 -135 71 -295 139 -440 186 -209 67 -200
63 -201 90 -1 14 -3 76 -5 138 -3 126 -3 126 -75 136 -43 7 -75 13 -115 21
-25 6 -28 2 -61 -77z"/>
<path d="M3537 4744 c-1 -1 -42 -5 -92 -8 -119 -8 -153 -13 -265 -41 -299 -74
-530 -205 -751 -425 -264 -263 -423 -588 -465 -950 -4 -36 -8 -377 -8 -758
l-1 -693 114 3 115 3 -1 177 -1 177 98 66 c54 36 100 65 102 65 2 0 3 -89 3
-198 l0 -197 113 -3 112 -3 0 275 0 275 97 65 c54 36 99 63 101 61 3 -2 4
-193 4 -424 l-1 -419 115 -1 114 -1 0 502 0 503 53 33 c93 57 91 53 62 103
-55 99 -65 244 -24 354 115 310 501 396 730 164 217 -220 153 -580 -126 -710
l-64 -30 1 -644 c1 -525 3 -649 14 -672 12 -23 110 -144 247 -303 12 -14 86
-100 165 -192 165 -192 176 -203 263 -242 35 -15 78 -34 94 -42 69 -30 585
-239 641 -259 l62 -21 1 45 c6 139 3 2820 -3 2891 -11 129 -55 345 -76 375 -4
6 -10 23 -14 39 -4 17 -29 76 -56 133 -248 527 -749 874 -1325 919 -117 9
-145 10 -148 8z m1296 -1707 c63 -41 84 -135 47 -211 -33 -69 -61 -78 -249
-78 -240 -1 -282 20 -380 191 -33 58 -61 109 -61 112 0 4 139 6 308 5 276 -1
311 -3 335 -19z"/>
<path d="M3243 2300 l1 -510 113 0 113 0 0 454 0 454 -57 18 c-31 10 -79 33
-106 51 -28 19 -53 36 -57 38 -4 3 -7 -225 -7 -505z"/>
</g>
</svg>
