<?xml version="1.0" encoding="utf-8"?>
<!-- Generator: Adobe Illustrator 16.0.0, SVG Export Plug-In . SVG Version: 6.00 Build 0)  -->
<!DOCTYPE svg PUBLIC "-//W3C//DTD SVG 1.1//EN" "http://www.w3.org/Graphics/SVG/1.1/DTD/svg11.dtd">
<svg version="1.1" id="Layer_1" xmlns="http://www.w3.org/2000/svg" xmlns:xlink="http://www.w3.org/1999/xlink" x="0px" y="0px"
	 width="738px" height="489.833px" viewBox="0 0 738 489.833" enable-background="new 0 0 738 489.833" xml:space="preserve">
<polyline fill="#414042" points="418.084,212.278 409.705,174.583 403.918,212.278 "/>
<g>
	<g>
		<path fill="#E6E7E8" d="M410.921,8.667h-93.846c-0.004,0-0.007,0.001-0.011,0.001h-87.723c-4.108,0-24.175,5.917-24.175,13
			l16.736,191.786c0,7.082,3.331,12.824,7.438,12.824h87.734h6.486h87.359c4.092,0,7.409-5.742,7.409-12.824L435,21.667
			C435,14.584,415.013,8.667,410.921,8.667z"/>
	</g>
</g>
<g id="Layer_2">
</g>
<g>
	<defs>
		<rect id="SVGID_1_" x="-130" y="-426.333" width="1000" height="1000"/>
	</defs>
	<clipPath id="SVGID_2_">
		<use xlink:href="#SVGID_1_"  overflow="visible"/>
	</clipPath>
	<g clip-path="url(#SVGID_2_)">
		<defs>
			<rect id="SVGID_3_" x="-130" y="-426.333" width="1000" height="1000"/>
		</defs>
		<clipPath id="SVGID_4_">
			<use xlink:href="#SVGID_3_"  overflow="visible"/>
		</clipPath>
	</g>
	<g clip-path="url(#SVGID_2_)">
		<defs>
			<rect id="SVGID_5_" x="259.579" y="31.833" width="120.644" height="118.667"/>
		</defs>
		<clipPath id="SVGID_6_">
			<use xlink:href="#SVGID_5_"  overflow="visible"/>
		</clipPath>
		<path clip-path="url(#SVGID_6_)" fill="#C49A6C" d="M362.952,96.327c0-66.84-55.747-40.915-69.271-39.806
			c-26.07,2.136-20.551,47.573-20.551,52.018c5.818,18.707,23.414,34.148,44.036,34.148
			C342.059,142.687,362.184,121.035,362.952,96.327"/>
		<path clip-path="url(#SVGID_6_)" fill="none" stroke="#C49A6C" stroke-width="0.791" stroke-miterlimit="10" d="M362.952,96.327
			c0-66.84-55.747-40.915-69.271-39.806c-26.07,2.136-20.551,47.573-20.551,52.018c5.818,18.707,23.414,34.148,44.036,34.148
			C342.059,142.687,362.184,121.035,362.952,96.327"/>
		<path clip-path="url(#SVGID_6_)" fill="#2E2E2F" d="M311.095,57.619c12.321-6.618,19.305-5.785,29.554-1.268
			c7.808,3.441,16.107,13.967,18.415,22.76C346.793,62.41,322.346,56.879,311.095,57.619"/>
		<path clip-path="url(#SVGID_6_)" fill="none" stroke="#2E2E2F" stroke-width="0.791" stroke-miterlimit="10" d="M311.095,57.619
			c12.321-6.618,19.305-5.785,29.554-1.268c7.808,3.441,16.107,13.967,18.415,22.76C346.793,62.41,322.346,56.879,311.095,57.619z"
			/>
		
			<line clip-path="url(#SVGID_6_)" fill="none" stroke="#000000" stroke-width="2.373" stroke-miterlimit="10" x1="271.391" y1="95.886" x2="366.681" y2="95.886"/>
		<path clip-path="url(#SVGID_6_)" d="M305.169,95.886c0-6.252-5.068-11.319-11.32-11.319c-6.251,0-11.32,5.067-11.32,11.319
			c0,6.251,5.069,11.32,11.32,11.32C300.101,107.207,305.169,102.137,305.169,95.886"/>
		
			<circle clip-path="url(#SVGID_6_)" fill="none" stroke="#000000" stroke-width="0.791" stroke-miterlimit="10" cx="293.849" cy="95.886" r="11.32"/>
		<path clip-path="url(#SVGID_6_)" d="M351.406,95.886c0-6.252-5.068-11.319-11.32-11.319c-6.251,0-11.32,5.067-11.32,11.319
			c0,6.251,5.069,11.32,11.32,11.32C346.338,107.207,351.406,102.137,351.406,95.886"/>
		
			<circle clip-path="url(#SVGID_6_)" fill="none" stroke="#000000" stroke-width="0.791" stroke-miterlimit="10" cx="340.086" cy="95.886" r="11.32"/>
		<path clip-path="url(#SVGID_6_)" fill="none" stroke="#58595B" stroke-width="6.329" stroke-miterlimit="10" d="M268.516,84.567
			c0,0,14.212-44.065,49.281-39.318c14.711,1.99,36.716-2.776,48.884,32.71"/>
		<path clip-path="url(#SVGID_6_)" fill="#303030" d="M272.641,109.688c0,2.278-1.847,4.127-4.126,4.127
			c-2.278,0-4.125-1.849-4.125-4.127V82.084c0-2.279,1.847-4.126,4.125-4.126c2.279,0,4.126,1.847,4.126,4.126V109.688z"/>
		<path clip-path="url(#SVGID_6_)" fill="#303030" d="M370.807,109.688c0,2.278-1.847,4.127-4.126,4.127
			c-2.278,0-4.125-1.849-4.125-4.127V82.084c0-2.279,1.847-4.126,4.125-4.126c2.279,0,4.126,1.847,4.126,4.126V109.688z"/>
		<path clip-path="url(#SVGID_6_)" fill="#191919" d="M359.064,108.895c5.285-9.596,2.49-19.543,0.62-27.317
			c-4.947-20.555-28.343-35.499-46.609-23.853c-0.884,0.446-4.467,1.133-7.03,0c-4.353-1.925-7.185-5.746-7.185-11.033
			c0.282-9.406,16.85-13.426,28.554-11.884C355.63,38.525,392.011,72.558,359.064,108.895"/>
		<path clip-path="url(#SVGID_6_)" fill="#191919" d="M276.064,112.288c-26.525-35.904,14.699-78.651,26.526-56.518
			c2.017,2.885-12.257,10.733-14.079,12.165C278.26,73.679,271.016,88.986,276.064,112.288"/>
	</g>
	<polyline clip-path="url(#SVGID_2_)" fill="#603913" points="2.235,243.388 21.125,212.278 607.79,212.278 626.679,243.388 	"/>
	<rect x="2.235" y="243.389" clip-path="url(#SVGID_2_)" fill="#3C2415" width="624.443" height="11.109"/>
	<polygon clip-path="url(#SVGID_2_)" fill="#6D6E71" points="314.457,489.833 24.457,489.833 24.457,254.499 604.457,254.499 
		604.457,489.833 	"/>
	<polygon clip-path="url(#SVGID_2_)" fill="#D1D3D4" points="355.446,227.833 400.779,227.833 403.168,212.278 407.098,186.681 
		416.234,127.167 355.446,127.167 284.355,127.167 223.567,127.167 239.022,227.833 284.355,227.833 	"/>
	<g clip-path="url(#SVGID_2_)">
		<defs>
			<rect id="SVGID_7_" x="-130" y="-426.333" width="1000" height="1000"/>
		</defs>
		<clipPath id="SVGID_8_">
			<use xlink:href="#SVGID_7_"  overflow="visible"/>
		</clipPath>
		<rect x="59.568" y="211.167" clip-path="url(#SVGID_8_)" width="102.667" height="16"/>
		<rect x="72.901" y="196.5" clip-path="url(#SVGID_8_)" fill="#00A79D" width="102" height="14.667"/>
		<rect x="59.568" y="181.833" clip-path="url(#SVGID_8_)" fill="#FFF200" width="98.667" height="14.667"/>
		<polygon clip-path="url(#SVGID_8_)" fill="#414042" points="59.568,211.167 66.902,203.833 72.901,203.833 72.901,211.167 		"/>
		<polygon clip-path="url(#SVGID_8_)" fill="#006838" points="174.901,196.5 165.234,189.167 158.234,189.167 158.234,196.5 		"/>
		<polygon clip-path="url(#SVGID_8_)" fill="#F9ED32" points="59.568,181.833 70.902,174.833 146.568,174.833 158.235,181.833 		"/>
		<rect x="223.567" y="123.167" clip-path="url(#SVGID_8_)" fill="#808285" width="192.667" height="4"/>
	</g>
	<rect x="611.538" y="389.167" clip-path="url(#SVGID_2_)" fill="#58595B" width="126.227" height="100.666"/>
	<polygon clip-path="url(#SVGID_2_)" fill="#414042" points="719.098,353.167 621.761,353.167 611.538,389.167 737.765,389.167 	"/>
	<polyline clip-path="url(#SVGID_2_)" fill="#6D6E71" points="733.443,380.833 630.095,380.833 640.761,358.66 721.946,358.66 	"/>
	<polygon clip-path="url(#SVGID_2_)" fill="#58595B" points="721.946,358.66 634.428,358.66 630.094,380.833 652.26,380.833 	"/>
	<polyline clip-path="url(#SVGID_2_)" fill="#E6E7E8" points="659.511,380.833 719.261,363.083 729.511,380.833 	"/>
	<polyline clip-path="url(#SVGID_2_)" fill="#58595B" points="24.457,253.502 24.457,269.163 314.457,269.163 604.457,269.163 
		604.457,253.502 	"/>
</g>
<ellipse fill="#808285" cx="450.97" cy="218.667" rx="13.03" ry="3.194"/>
<ellipse fill="#808285" cx="450.97" cy="190.236" rx="13.03" ry="3.194"/>
<polyline fill="#808285" points="437.94,218.667 464,218.667 464,190.236 437.94,190.236 "/>
<ellipse fill="#3C2415" cx="450.97" cy="190.236" rx="10.155" ry="1.764"/>
<path fill="#808285" d="M464,195.458c-5.454,0-9.875,3.766-9.875,8.41s4.421,8.41,9.875,8.41s9.875-3.766,9.875-8.41
	S469.454,195.458,464,195.458z M464,209.892c-3.804,0-6.888-2.697-6.888-6.024s3.084-6.024,6.888-6.024s6.888,2.697,6.888,6.024
	S467.804,209.892,464,209.892z"/>
</svg>
