<?xml version="1.0" encoding="utf-8"?>
<!-- Generator: Adobe Illustrator 16.0.0, SVG Export Plug-In . SVG Version: 6.00 Build 0)  -->
<!DOCTYPE svg PUBLIC "-//W3C//DTD SVG 1.1//EN" "http://www.w3.org/Graphics/SVG/1.1/DTD/svg11.dtd">
<svg version="1.1" id="Layer_1" xmlns="http://www.w3.org/2000/svg" xmlns:xlink="http://www.w3.org/1999/xlink" x="0px" y="0px"
	 width="704.965px" height="664.466px" viewBox="0 0 704.965 664.466" enable-background="new 0 0 704.965 664.466"
	 xml:space="preserve">
<g>
	<g>
		<g>
			<g>
				<path fill="#FFFFFF" d="M366.134,403.456c-8.305-1.643-15.769-5.601-21.717-11.166V494.01h22.467v-90.415h-0.5L366.134,403.456z
					"/>
				<path fill="#FFFFFF" d="M536.128,357.022c-0.07-2.939-0.223-5.858-0.45-8.757v-0.232l-0.021,0.001
					c-6.592-82.37-75.725-147.382-159.763-147.382c-88.38,0-160.283,71.903-160.283,160.283v0v0.5v126.266h22.468V451.51
					l20.467-13.4l0.042,40.592h22.467l-0.042-55.233l20.468-13.462v85.197h22.468v-99.907l14.085-9.221
					c-0.205-0.299-0.422-0.589-0.62-0.894c-4.533-6.979-7.167-15.305-7.167-24.247c0-24.613,19.953-44.566,44.566-44.566
					s44.566,19.953,44.566,44.566c0,20.257-13.523,37.338-32.028,42.756v121.032c0,1.371,0.179,2.889,0.5,4.459v5.541l3.598,4.213
					c0.776,1.402,1.626,2.674,2.517,3.717l47.2,55.268c1.065,1.248,2.439,2.576,3.974,3.885l2.9,3.396l4.13,1.701
					c1.72,1.051,3.409,1.945,4.926,2.57l69.146,28.486c1.05,0.432,2.074,0.664,3.052,0.717l6.385,2.631v-6.898
					c0.324-0.926,0.5-1.965,0.5-3.102V361.436v-0.5v-2.903C536.178,357.692,536.16,357.355,536.128,357.022z M510.04,386.034
					c0,7.7-6.3,14-14,14h-26.275c-7.7,0-17.102-5.483-20.894-12.186l-10.831-19.148h58c7.7,0,14,6.3,14,14V386.034z"/>
			</g>
		</g>
	</g>
</g>
<path fill="none" stroke="#000000" stroke-miterlimit="10" d="M119.896,391.633"/>
<g>
	<path d="M20.54,378.276c0.002-0.048,0.005-0.097,0.006-0.145H20.54V378.276z"/>
	<path fill="#FFFFFF" d="M682.097,190.196l-39.374,14.91c-17.557-27.881-38.941-52.772-63.343-73.819l13.576-33.172
		c-5.943-4.283-12.022-8.389-18.229-12.313l-23.831,23.616c-28.686-19.521-60.546-34.174-94.57-42.867l-0.881-28.955
		c-7.059-1.46-14.192-2.711-21.396-3.753l-10.245,26.333c-13.186-1.816-26.627-2.762-40.275-2.762
		c-22.577,0-44.586,2.587-65.804,7.457l-12.813-26.575c-7.01,1.519-13.941,3.244-20.792,5.163l1.472,30.74
		c-32.606,11.514-62.838,28.608-89.7,50.245l-28.358-24.013c-5.691,4.195-11.255,8.552-16.684,13.066l17.893,35.512
		c-22.269,22.583-41.428,48.637-56.726,77.355l-44.751-13.05c-3.45,6.072-6.73,12.253-9.832,18.538l37.844,30.93
		c-10.756,27.521-18.169,56.908-21.699,87.583l-51.675,7.025c-0.47,4.998-0.839,10.025-1.104,15.08
		c-0.099,1.882-0.182,3.769-0.251,5.66l82.327-1.144v-0.145c3.146-27.225,9.755-53.307,19.342-77.735l14.922-32.322
		c13.636-25.488,30.714-48.613,50.564-68.657l24.202-21.802c23.945-19.204,50.893-34.376,79.958-44.595l28.644-8.279
		c18.913-4.321,38.532-6.618,58.658-6.618c12.165,0,24.147,0.839,35.901,2.451l28.987,5.657
		c30.33,7.716,58.729,20.721,84.301,38.046l25.391,19.41c21.751,18.681,43.938,45.634,59.585,70.38l80.579-43.792
		C690.157,202.596,686.219,196.329,682.097,190.196z"/>
</g>
<g>
	<path d="M283.659,491.897 M293.925,569.163"/>
	<path d="M344.411,494.186h22.473"/>
</g>
<g>
</g>
<g>
</g>
<g>
</g>
<g>
</g>
<g>
</g>
<g>
</g>
</svg>
