<?xml version="1.0" encoding="utf-8"?>
<!-- Generator: Adobe Illustrator 16.0.0, SVG Export Plug-In . SVG Version: 6.00 Build 0)  -->
<!DOCTYPE svg PUBLIC "-//W3C//DTD SVG 1.1//EN" "http://www.w3.org/Graphics/SVG/1.1/DTD/svg11.dtd">
<svg version="1.1" id="Layer_1" xmlns="http://www.w3.org/2000/svg" xmlns:xlink="http://www.w3.org/1999/xlink" x="0px" y="0px"
	 width="1000px" height="1000px" viewBox="-82.5 0 1000 1000" enable-background="new -82.5 0 1000 1000" xml:space="preserve">
<g id="Layer_1_1_" display="none">
	
		<image display="inline" overflow="visible" enable-background="new    " width="1494" height="2656" xlink:href="75220D2.jpeg"  transform="matrix(0.3576 0 0 0.3576 37.79 -66.0522)">
	</image>
</g>
<g id="Layer_5">
	<path fill="#4F5B7B" d="M374.498,718.313c61.312-84.668,49.935-191.334,111.646-191.334l2.956-6.184
		c43.044,85.518,54.082,160.548,94.71,187.352c-17.17,38.017-39.666,48.54-29,64.165c-38.666-39.333-47.848-11.695-68.666-7.333
		C458.688,770.733,436.208,718.313,374.498,718.313z"/>
</g>
<g id="Layer_4">
	<path fill="#EADCA2" d="M330.882,340.067c17.428-37.254,31.762-35.587,18.939,7.297
		C339.354,347.364,336.81,343.715,330.882,340.067z"/>
	<path fill="#8797CD" d="M315.81,307.646c-10-28.5-3.84-51.75-3-60c8.25-48.5,80,75,14.75,93.5c-3.593,0-6.5-14.983-6.5-33.5
		C318.158,307.646,315.81,307.646,315.81,307.646z"/>
	<path fill="#8797CD" d="M447.81,752.979c0,6.629-5.372,12-12,12h-30.047c-6.628,0-12-5.371-12-12l-19.265-148
		c0-6.627,5.372-12,12-12l63.645,2c6.629,0,12,5.373,12,12L447.81,752.979z"/>
	<path fill="#8797CD" d="M458.401,887.642c0,6.628-5.373,12-12,12h-21.186c-6.627,0-12-5.372-12-12l-18.01-128.946
		c0-6.628,11.125,5.281,17.752,5.281h21.183c6.629,0,13.11-9.572,13.11-2.944L458.401,887.642z"/>
	<path fill="#848484" d="M378.525,907.643c0,4.42,3.582,8.001,8.001,8.001h63.589c4.419,0,8.001-3.581,8.001-8.001l0,0
		c0-4.419,0.028-20.74-7.975-11.34l-63.616,3.339C382.107,899.642,378.525,903.224,378.525,907.643L378.525,907.643z"/>
</g>
<g id="Layer_2">
	<path fill="#662D91" d="M312.81,247.646c9-30.046,55,68,31.494,119c0,14.371,6.938,26,15.506,26c29-7,9.834-26,21.988-26
		c15.012,0,41.011-12,59.011-42c19-46-5-115-59.011-127.091C369.81,197.556,303.81,229.646,312.81,247.646z"/>
	<path fill="#0C121F" d="M326.847,270.396c0-1.243,2.229-1.243,0-1.243c-2.229,0-8.071,0-8.071,1.243s1.809,2.25,4.034,2.25
		C325.039,272.646,326.847,271.64,326.847,270.396z"/>
	<path fill="#848484" d="M363.477,392.646c42.285-20.333,125.333-24.333,110.667,202.334c-49,26-90.667,20-98,11.331
		c-9.334-6,3.47-47.331-13.334-101.332C330.882,484.98,342.813,468.98,363.477,392.646z"/>
</g>
<g id="Layer_3">
	<path fill="#8797CD" d="M382.81,205.646c-6,11.5-0.992,40.627,22.952,28c61.819-32.599,10.911-97.364,4.548-91
		C399.563,153.395,435.81,197.646,382.81,205.646z"/>
	<path fill="#8797CD" d="M452.81,315.646c0,16.306-2.234,29.5-5,29.5c77,39,40,150,64,178c51.5,33.5,71.5,126,72,185
		c-42.837,0-32.5-42.5-77.5-55.5c5.5-68-27.805-122.2-91-171.1c-32.607-25.229-28.5-71.902-57-89.902c5.251,0,9.5-16.549,9.5-37
		C388.81,354.646,424.81,335.146,452.81,315.646z"/>
</g>
<g>
	<g>
		<g>
			<rect x="-146.213" y="439.135" fill="none" width="582.021" height="582.022"/>
			<rect x="-146.213" y="439.135" fill="none" width="582.021" height="582.022"/>
			<g>
				<rect x="-146.213" y="439.135" fill="none" width="582.021" height="582.022"/>
				<path fill="none" stroke="#C9DB2B" stroke-width="12" stroke-miterlimit="10" d="M200.867,862.266
					c0,25.736-7.463,46.563-16.685,46.563"/>
				<rect x="-146.213" y="439.135" fill="none" width="582.021" height="582.022"/>
				<path fill="none" stroke="#C9DB2B" stroke-width="12" stroke-miterlimit="10" d="M131.486,867.698
					c4.956,17.85,13.312,36.086,19.714,41.13"/>
				<rect x="-146.213" y="439.135" fill="none" width="582.021" height="582.022"/>
				<path fill="#232F68" d="M95.863,832.695c0,11.841,41.369,72.253,71.247,21.423"/>
				<rect x="-146.213" y="439.135" fill="none" width="582.021" height="582.022"/>
				<path fill="#314792" d="M146.835,587.311c0-15.47,39.685-21.585,45.107-27.986c-5.422,6.982-1.432,15.424-3.201,15.424
					c3.707-0.873,10.185-4.946,16.587-11.932c0,18.496-3.902,24.494-10.767,29.246c-0.291,9.457,25.609-1.311,42.488,16.732
					c-9.604,2.618-20.371-5.812-32.303,9.861c0,2.896,2.037,3.522,8.439,0c-3.783,10.218-16.83,6.145-32.593,6.145
					c5.838,45.105,12.223,76.827,9.604,82.355c63.44,18.624,36.428,110.938,44.234,120.188c1.66,1.967,10.673,2.328,23.863,2.328
					c-6.111,11.641-11.059,11.932-21.244,16.879c3.783,40.159-119.606,34.048-142.499-16.491
					C77.58,792.598,148.644,581.795,146.835,587.311"/>
				<rect x="-146.213" y="439.135" fill="none" width="582.021" height="582.022"/>
				<path fill="#831618" d="M132.448,660.079c35.438,22.923,17.595,73.405,12.938,83.581c-7.373-3.881-6.114-13.514-16.06-13.514
					c0,6.276-4.799,8.73-16.103,11.493c-1.964-5.563-1.273-2.474-5.093-11.493c-8.536,3.686-8.679,9.021-11.252,9.021
					C96.878,695.453,112.788,660.079,132.448,660.079"/>
				<rect x="-146.213" y="439.135" fill="none" width="582.021" height="582.022"/>
				<path fill="#D7E02D" d="M54.584,739.168c52.673-68.097,84.976-45.104,78.479-107.902c4.75-31.198-30.753-26.835-58.108-14.611
					C44.69,682.712,37.415,724.326,54.584,739.168"/>
				<rect x="-146.213" y="439.135" fill="none" width="582.021" height="582.022"/>
				<path fill="#DDDDDD" d="M152.958,615.555c-38.902,0-70.38,0.265-70.38,0.587C82.578,615.816,97.072,668.452,152.958,615.555"/>
				<rect x="-146.213" y="439.135" fill="none" width="582.021" height="582.022"/>
				<path fill="#161617" d="M93.58,615.555c0,0,7.275,23.59,24.188,0"/>
				<rect x="-146.213" y="439.135" fill="none" width="582.021" height="582.022"/>
				<path fill="#232F68" d="M74.956,616.651c0-4.826,45.98,12.222,107.674-8.729C161.095,559.031,74.956,611.826,74.956,616.651"/>
				<rect x="-146.213" y="439.135" fill="none" width="582.021" height="582.022"/>
				<path fill="#D7E02D" d="M128.792,912.709c0,0,16.006-18.236,33.882,0"/>
				<rect x="-146.213" y="439.135" fill="none" width="582.021" height="582.022"/>
				<path fill="#D7E02D" d="M175.583,912.709c0,0,16.941-20.564,33.882,0"/>
				<rect x="-146.213" y="439.135" fill="none" width="582.021" height="582.022"/>
				<g>
					<rect x="-146.213" y="439.135" fill="none" width="582.021" height="582.022"/>
					<path fill="#232F68" d="M207.366,821.815c35.503,14.841-21.956,21.575-27.646,13.387
						c-28.343-40.796-22.751-31.656-34.921-61.694c-4.651-11.479,19.497-17.049,42.197-22.406
						C199.662,748.108,207.366,812.212,207.366,821.815"/>
				</g>
				<path fill="#EADCA2" d="M430.145,656.983c0,6.192-2.481,11.052-9.957,11.052l0,0c-7.474,0-9.377-6.189-9.377-12.385
					l-4.154-77.349c0-6.192,2.254-16.824,9.729-16.824h10.571c7.476,0,13.533,5.021,13.533,11.217L430.145,656.983z"/>
				<path fill="#EADCA2" d="M405.762,678.316c0,6.627,5.372,12,12,12h6.047c6.627,0,12-5.373,12-12v-3.333c0-6.628-5.373-12-12-12
					h-6.047c-6.628,0-12,5.372-12,12V678.316z"/>
				<path fill="#EADCA2" d="M442.051,560.646c0,6.627-5.373,12-12,12h-12.289c-6.628,0-12-5.373-12-12l-6.952-120.363
					c0-6.627,5.373-12,12-12h23.333c6.627,0,12,5.373,12,12L442.051,560.646z"/>
				<path fill="#4F5B7B" d="M387.477,471.649c4,9.897,17.27-5.119,32.095-6.667c15.556-1.624,31.237,10.021,31.237,0
					C461.477,354.316,383.477,350.983,387.477,471.649z"/>
				<g>
					<g>
						<rect x="-84.19" y="322.358" fill="none" width="713.241" height="713.241"/>
						<rect x="-84.19" y="322.358" fill="none" width="713.241" height="713.241"/>
						<g>
							<rect x="-84.19" y="322.358" fill="none" width="713.241" height="713.241"/>
							<path fill="#6D6E71" d="M291.331,924.956c0,8.133,17.227,14.714,38.515,14.714c0-3.031-0.119-26.352-12.244-26.352
								C303.115,913.318,294.596,916.355,291.331,924.956"/>
							<rect x="-84.19" y="322.358" fill="none" width="713.241" height="713.241"/>
							<path fill="#6D6E71" d="M211.092,916.014c3.686,1.545,16.17-0.354,42.201,0.596c9.806,0.354,12.407,15.561,8.818,21.268
								c0,0-65.65,9.81-85.968,1.795C156.899,932.077,175.248,888.26,211.092,916.014"/>
							<rect x="-84.19" y="322.358" fill="none" width="713.241" height="713.241"/>
							<path fill="#414042" d="M245.297,922.994c0,1.083-3.22,1.961-7.191,1.961s-7.191-0.878-7.191-1.961
								C230.914,921.91,245.297,921.91,245.297,922.994"/>
							<rect x="-84.19" y="322.358" fill="none" width="713.241" height="713.241"/>
							<path fill="#FCD2C9" d="M234.885,924.599v0.148c0,0,3.165,0.467,6.431,0.002v-0.15H234.885z"/>
							<rect x="-84.19" y="322.358" fill="none" width="713.241" height="713.241"/>
							<g>
								<rect x="-84.19" y="322.358" fill="none" width="713.241" height="713.241"/>
								<path fill="#FCD2C9" d="M304.989,797.377c-1.979,29.897-2.899,59.899-2.204,89.861c0.197,8.517,0.5,17.046,1.251,25.533
									c0.338,3.817,0.146,11.772,5.236,12.797c6.734,1.354,9.604-8.959,2.845-10.315c2.266,0.453,3.034,2.151,3.449,3.298
									c-0.084-0.229-0.137-0.475-0.189-0.713c-0.118-0.52-0.459-2.893-0.203-0.979c-0.332-2.471-0.523-4.957-0.709-7.438
									c-0.633-8.545-0.888-17.118-1.055-25.683c-0.563-28.795,0.377-57.629,2.279-86.36
									C316.144,790.485,305.442,790.53,304.989,797.377"/>
								<rect x="-84.19" y="322.358" fill="none" width="713.241" height="713.241"/>
								<path fill="none" stroke="#FCD2C9" stroke-width="9" stroke-miterlimit="10" d="M238.106,924.646
									c0-72.727-1.386-132.264-2.915-132.264"/>
								<rect x="-84.19" y="322.358" fill="none" width="713.241" height="713.241"/>
								<path fill="#BCBEC0" d="M237.957,595.057c0-4.728-8.409-8.44-13.136-8.44l-41.66,126.362
									c2.016,20.924,28.71,26.498,28.71,26.498c19.904-7.003,26.085-28.428,26.085-33.152L237.957,595.057L237.957,595.057z"/>
								<rect x="-84.19" y="322.358" fill="none" width="713.241" height="713.241"/>
								<path fill="none" stroke="#FCD2C9" stroke-width="12" stroke-miterlimit="10" d="M195.201,728.709
									c-7.548,37.545-10.401,58.92-16.642,75.087"/>
								<rect x="-84.19" y="322.358" fill="none" width="713.241" height="713.241"/>
								<path fill="#FBD2C9" d="M193.706,808.521c-1.872-8.561-27.371-11.412-31.026-9.54
									c-12.838,2.675-18.633,28.353-18.633,28.353c0,4.727,3.832,8.559,8.559,8.559l34.273,6.422
									c4.727,0,8.321-10.343,8.321-15.067L193.706,808.521z"/>
								<rect x="-84.19" y="322.358" fill="none" width="713.241" height="713.241"/>
								<path fill="#414042" d="M137.824,810.752c0.812-3.818,5.218-6.116,9.841-5.136l43.604,9.271
									c4.624,0.981,7.714,4.874,6.902,8.692l-2.572,12.102c-0.812,3.818-5.218,6.117-9.841,5.136l-43.604-9.271
									c-4.623-0.979-7.714-4.874-6.902-8.692L137.824,810.752z"/>
								<rect x="-84.19" y="322.358" fill="none" width="713.241" height="713.241"/>
								<path fill="none" stroke="#414042" stroke-miterlimit="10" d="M137.824,810.752c0.812-3.818,5.218-6.116,9.841-5.136
									l43.604,9.271c4.624,0.981,7.714,4.874,6.902,8.692l-2.572,12.102c-0.812,3.818-5.218,6.117-9.841,5.136l-43.604-9.271
									c-4.623-0.979-7.714-4.874-6.902-8.692L137.824,810.752z"/>
								<rect x="-84.19" y="322.358" fill="none" width="713.241" height="713.241"/>
								<path fill="#414042" d="M137.824,810.752c0.812-3.818,5.218-6.116,9.841-5.136l43.604,9.271
									c4.624,0.981,7.714,4.874,6.902,8.692l-2.572,12.102c-0.812,3.818-5.218,6.117-9.841,5.136l-43.604-9.271
									c-4.623-0.979-7.714-4.874-6.902-8.692L137.824,810.752z"/>
								<rect x="-84.19" y="322.358" fill="none" width="713.241" height="713.241"/>
								<path fill="none" stroke="#414042" stroke-miterlimit="10" d="M137.824,810.752c0.812-3.818,5.218-6.116,9.841-5.136
									l43.604,9.271c4.624,0.981,7.714,4.874,6.902,8.692l-2.572,12.102c-0.812,3.818-5.218,6.117-9.841,5.136l-43.604-9.271
									c-4.623-0.979-7.714-4.874-6.902-8.692L137.824,810.752z"/>
								<rect x="-84.19" y="322.358" fill="none" width="713.241" height="713.241"/>
								<path fill="#414042" d="M145.162,785.854c5.753,1.226,9.006,8.839,7.271,17.01l-16.379,77.05
									c-1.737,8.172-7.805,13.805-13.558,12.58l-18.225-3.874c-5.752-1.225-9.006-8.836-7.269-17.008l16.378-77.051
									c1.735-8.171,7.806-13.804,13.557-12.577L145.162,785.854z"/>
								<rect x="-84.19" y="322.358" fill="none" width="713.241" height="713.241"/>
								<path fill="none" stroke="#414042" stroke-miterlimit="10" d="M145.162,785.854c5.753,1.226,9.006,8.839,7.271,17.01
									l-16.379,77.05c-1.737,8.172-7.805,13.805-13.558,12.58l-18.225-3.874c-5.752-1.225-9.006-8.836-7.269-17.008l16.378-77.051
									c1.735-8.171,7.806-13.804,13.557-12.577L145.162,785.854z"/>
								<rect x="-84.19" y="322.358" fill="none" width="713.241" height="713.241"/>
								<path fill="#FBD2C9" d="M190.384,828.423c-3.78-2.02-21.547-7.871-25.024-7.227c-12.104,0.483-18.248,11.856-18.248,11.856
									c-0.131,2.154,3.353,4.12,7.781,4.392l31.935,4.887c4.43,0.271,8.085-4.237,8.217-6.394c0,0-0.362-4.166-0.922-5.068
									C193.518,829.895,192.073,829.325,190.384,828.423"/>
								<rect x="-84.19" y="322.358" fill="none" width="713.241" height="713.241"/>
								<path fill="#FBD2C9" d="M164.245,813.836c-1.18,2.737-4.356,4-7.094,2.82c-2.739-1.182-4.002-4.355-2.823-7.097l2.916-6.767
									c1.179-2.737,4.356-4.002,7.094-2.821c2.739,1.183,4.002,4.356,2.822,7.098L164.245,813.836z"/>
								<rect x="-84.19" y="322.358" fill="none" width="713.241" height="713.241"/>
								<path fill="#6D6E71" d="M329.847,939.668c-21.271-49.393-55.99-14.713-54.207,0.356
									C289.37,962.136,323.25,949.298,329.847,939.668"/>
								<rect x="-84.19" y="322.358" fill="none" width="713.241" height="713.241"/>
								<g>
									<rect x="-84.19" y="322.358" fill="none" width="713.241" height="713.241"/>
									<path fill="#D1D3D4" d="M360.702,682.396c0-65.602-19.094-118.778-48.14-118.778c-13.791,0-25.17,40.496-38.985,23.709
										c-2.546-3.093-6.097,1.927-7.685,11.561c-3.648,22.143-5.919,60.127-5.918,83.509c0,36.345,4.838,80.391,7.463,105.8
										c0.648,6.264,8.96,7.252,14.16,9.183c10.489,3.896,22.306,3.798,30.966,3.798
										C341.607,801.174,360.702,747.996,360.702,682.396"/>
									<rect x="-84.19" y="322.358" fill="none" width="713.241" height="713.241"/>
									<g>
										<rect x="-84.19" y="322.358" fill="none" width="713.241" height="713.241"/>
										<path fill="#D1D3D4" d="M264.411,780.616c4.353,19.607-28.149,19.881-28.149,19.881c-4.727,0-34.553-2.459-30.273-23.854
											l7.005-72.463l12.363-101.52c0-4.729,6.369-2.854,11.096-2.854c0,0,37.125-46.358,25.814,9.271l-3.498,69.909
											L264.411,780.616z"/>
										<rect x="-84.19" y="322.358" fill="none" width="713.241" height="713.241"/>
										<path fill="#D1D3D4" d="M215.647,682.396c-7.213,33.237-9.31,47.342-6.065,57.078"/>
										<rect x="-84.19" y="322.358" fill="none" width="713.241" height="713.241"/>
										<g>
											<rect x="-84.19" y="322.358" fill="none" width="713.241" height="713.241"/>
											<path fill="#808285" d="M262.266,600.536c-4.519,38.673-6.251,77.651-4.562,116.561
												c0.932,21.442,3.394,42.675,5.635,63.998c0.229,2.173,0.442,4.354,0.533,6.534c0.096,2.291,3.663,2.302,3.566,0
												c-0.263-6.308-1.213-12.604-1.932-18.87c-1.253-10.947-2.339-21.91-3.143-32.898
												c-2.564-35.092-2.207-70.353,0.526-105.42c0.778-9.985,1.78-19.953,2.942-29.901
												C266.099,598.255,262.53,598.279,262.266,600.536"/>
											<rect x="-84.19" y="322.358" fill="none" width="713.241" height="713.241"/>
											<g>
												<rect x="-84.19" y="322.358" fill="none" width="713.241" height="713.241"/>
												<path fill="#E6E7E8" d="M304.639,601.592l14.021,113.049c1.618,11.947,64.086,33.285,66.104-23.18l-11.056-86.659
													C364.278,539.435,289.192,573.063,304.639,601.592"/>
												<rect x="-84.19" y="322.358" fill="none" width="713.241" height="713.241"/>
												<path fill="#FCD2C9" d="M350.887,728.709c4.948,33.361,6.903,49.048,5.122,53.684h13.779
													c1.781-4.636,0.312-22.467-4.638-55.826"/>
												<rect x="-84.19" y="322.358" fill="none" width="713.241" height="713.241"/>
												<path fill="#FCD2C9" d="M376.362,796.188c0-4.728,1.396-13.796-3.328-13.796h-17.593c-4.729,0-4.52,13.351-4.52,18.075
													l-1.188,24.728c0,4.728-8.139,15.217-3.41,15.217c0,0,23.618,5.705,30.037-12.126L376.362,796.188L376.362,796.188z"/>
												<rect x="-84.19" y="322.358" fill="none" width="713.241" height="713.241"/>
												<path fill="#FCD2C9" d="M343.659,814.242c0,2.241,1.814,4.058,4.057,4.058c2.239,0,4.056-1.813,4.056-4.058v-22.617
													c0-2.24,4.762-8.929,2.521-8.929c0,0-10.632,6.688-10.632,8.929L343.659,814.242L343.659,814.242z"/>
												<rect x="-84.19" y="322.358" fill="none" width="713.241" height="713.241"/>
												<g>
													<rect x="-84.19" y="322.358" fill="none" width="713.241" height="713.241"/>
													<path fill="#CAEAEF" d="M393.755,462.465c0-63.642-51.592-115.234-115.235-115.234
														c-63.642,0-115.235,51.593-115.235,115.236c0,63.644,51.593,115.233,115.235,115.233
														C342.164,577.7,393.755,526.107,393.755,462.465"/>
													<rect x="-84.19" y="322.358" fill="none" width="713.241" height="713.241"/>
													<g>
														<rect x="-84.19" y="322.358" fill="none" width="713.241" height="713.241"/>
														<path fill="#FCD2C9" d="M334.237,487.42c0-10.881,4.396-21.471,10.229-22.414c13.438-2.174,8.248,11.992,6.41,22.414
															c-1.891,10.718-6.252,17.24-9.62,15.746C336.933,501.246,334.237,498.304,334.237,487.42"/>
														<rect x="-84.19" y="322.358" fill="none" width="713.241" height="713.241"/>
														<g id="Layer_6">
															<rect x="-84.19" y="322.358" fill="none" width="713.241" height="713.241"/>
															<path fill="#DDBAB3" d="M261.401,555.025c1.833,6.625-0.638,12.332-1.426,12.332l43.245-7.489
																c-0.261,0-0.472-5.632-0.472-12.593C279.893,547.274,261.401,550.741,261.401,555.025"/>
															<rect x="-84.19" y="322.358" fill="none" width="713.241" height="713.241"/>
															<path fill="#ED1C24" d="M223.023,563.479c-7.057,4.709-5.423,11.188,1.798,23.137c-4.993,0-9.45,20.327,1.724,20.327
																c38.752-10.521,49.452-7.966,75.128-5.173c16.82-0.533,10.699-7.312,28.53-14.619
																c31.025-6.419,51.354,7.312,57.653-3.981c2.75-2.749-0.016-8.99-3.271-14.74c2.465,0,6.983-4.278,4.458-5.823
																c-6.954-4.25-15.603-6.775-12.479-9.63c6.773-5.697,10.741-5.11,13.951-11.472
																c2.146-6.334-9.078-24.781-14.176-17.363c-9.629,17.477-25.633,22.445-27.333,23.138L241.253,568.63
																C231.301,568.188,232.608,569.021,223.023,563.479"/>
															<rect x="-84.19" y="322.358" fill="none" width="713.241" height="713.241"/>
															<g>
																<path fill="#FCD2C9" d="M338.495,489.883c0-35.979-34.778-65.144-69.969-65.144
																	c-35.19,0-67.531,29.716-58.259,69.183c5.177,22.035,6.162,41.354,16.177,48.738
																	c10.552,7.78,22.815,12.355,42.082,12.364C309.608,555.04,338.495,525.859,338.495,489.883"/>
																<rect x="-84.19" y="322.358" fill="none" width="713.241" height="713.241"/>
																<path fill="#2E2E2F" d="M199.413,479.539l43.281-4.098l1.248,17.65c-10.799,24.989-43.905,12.566-43.281,4.1
																	L199.413,479.539z"/>
																<rect x="-84.19" y="322.358" fill="none" width="713.241" height="713.241"/>
																<path fill="none" stroke="#000000" stroke-miterlimit="10" d="M199.413,479.539l43.281-4.098l1.248,17.65
																	c-10.799,24.989-43.905,12.566-43.281,4.1L199.413,479.539z"/>
																<rect x="-84.19" y="322.358" fill="none" width="713.241" height="713.241"/>
																<path fill="#2E2E2F" d="M274.131,471.639l43.281-4.098l1.248,17.652c-10.799,24.988-43.905,12.565-43.281,4.098
																	L274.131,471.639z"/>
																<rect x="-84.19" y="322.358" fill="none" width="713.241" height="713.241"/>
																<path fill="none" stroke="#000000" stroke-miterlimit="10" d="M274.131,471.639l43.281-4.098l1.248,17.652
																	c-10.799,24.988-43.905,12.565-43.281,4.098L274.131,471.639z"/>
																<rect x="-84.19" y="322.358" fill="none" width="713.241" height="713.241"/>
																<line fill="none" stroke="#000000" stroke-miterlimit="10" x1="243.028" y1="480.174" x2="274.51" y2="476.998"/>
																<rect x="-84.19" y="322.358" fill="none" width="713.241" height="713.241"/>
																<line fill="none" x1="243.187" y1="480.922" x2="274.668" y2="477.746"/>
																<rect x="-84.19" y="322.358" fill="none" width="713.241" height="713.241"/>
																
																	<line fill="none" stroke="#000000" stroke-width="6" stroke-miterlimit="10" x1="243.187" y1="480.922" x2="274.668" y2="477.746"/>
																<rect x="-84.19" y="322.358" fill="none" width="713.241" height="713.241"/>
																<path fill="#2E2E2F" d="M223.752,462.153c3.388,0,49.106-2.608,87.525-20.977
																	c23.799,7.423,15.716,58.796,14.646,62.817l7.313-4.021c0-17.928,6.479-32.434,14.48-32.434
																	c5.313-25.121-3.961-90.502-61.912-56.028C204.435,333.532,136.915,469.523,223.752,462.153"/>
																<rect x="-84.19" y="322.358" fill="none" width="713.241" height="713.241"/>
																<path fill="none" stroke="#000000" stroke-miterlimit="10" d="M223.752,462.153c3.388,0,49.106-2.608,87.525-20.977
																	c23.799,7.423,15.716,58.796,14.646,62.817l7.313-4.021c0-17.928,6.479-32.434,14.48-32.434
																	c5.313-25.121-3.961-90.502-61.912-56.028C204.435,333.532,136.915,469.523,223.752,462.153"/>
																<rect x="-84.19" y="322.358" fill="none" width="713.241" height="713.241"/>
																<path fill="none" stroke="#000000" stroke-width="6" stroke-miterlimit="10" d="M235.191,658.117
																	c3.308,0,15.704-9.412,9.78-15.335c-2.281-2.28-16.715-2.691-6.865-12.541c4.03-4.029,10.312-12.677,10.312-29.095"
																	/>
																<rect x="-84.19" y="322.358" fill="none" width="713.241" height="713.241"/>
																<path d="M239.622,658.117c0-2.446-1.984-4.434-4.431-4.434c-2.447,0-4.431,1.984-4.431,4.434
																	c0,2.445,1.983,4.431,4.431,4.431C237.638,662.547,239.622,660.563,239.622,658.117"/>
																<rect x="-84.19" y="322.358" fill="none" width="713.241" height="713.241"/>
																<circle fill="none" stroke="#000000" stroke-miterlimit="10" cx="235.191" cy="658.118" r="4.431"/>
																<rect x="-84.19" y="322.358" fill="none" width="713.241" height="713.241"/>
																<path fill="none" stroke="#000000" stroke-width="6" stroke-miterlimit="10" d="M275.81,599.371
																	c0,11.873,5.669,9.021,8.033,21.479c1.308,6.896-5.125,15.731-7.964,19.142c-5.944,7.13,7.512,19.375,16.88,19.375"
																	/>
																<rect x="-84.19" y="322.358" fill="none" width="713.241" height="713.241"/>
																<path d="M297.189,659.365c0-2.447-1.984-4.433-4.431-4.433c-2.446,0-4.43,1.982-4.43,4.433s1.984,4.431,4.43,4.431
																	C295.206,663.795,297.189,661.813,297.189,659.365"/>
																<rect x="-84.19" y="322.358" fill="none" width="713.241" height="713.241"/>
																<circle fill="none" stroke="#000000" stroke-miterlimit="10" cx="292.759" cy="659.366" r="4.431"/>
																<rect x="-84.19" y="322.358" fill="none" width="713.241" height="713.241"/>
																<path fill="#CAEAEF" d="M251.872,692.054c0,11.558-7.687,20.923-17.169,20.923s-17.169-9.365-17.169-20.923
																	c0-11.555,7.687-20.921,17.169-20.921S251.872,680.5,251.872,692.054"/>
																<rect x="-84.19" y="322.358" fill="none" width="713.241" height="713.241"/>
																<ellipse fill="none" stroke="#939598" stroke-miterlimit="10" cx="234.702" cy="692.054" rx="17.169" ry="20.923"/>
																<rect x="-84.19" y="322.358" fill="none" width="713.241" height="713.241"/>
																<path fill="#939598" d="M271.658,723.913c0.119,12.008,0,13.85,0.772,21.575c1.33,13.295,22.162,18.108,25.75-1.604
																	c0.556-3.054,0.27-8.933,0.27-19.972"/>
																<rect x="-84.19" y="322.358" fill="none" width="713.241" height="713.241"/>
																<path fill="#E6E7E8" d="M300.723,723.913c0,0.985-0.798,1.783-1.783,1.783h-27.697
																	c-0.985,0-1.783-0.798-1.783-1.783c0-0.983,0.798-1.782,1.783-1.782h27.697
																	C299.925,722.13,300.723,722.929,300.723,723.913"/>
															</g>
															<g>
																<g>
																	<rect x="129.051" y="61.48" fill="none" width="1000" height="1000"/>
																	<path fill="#3D1F17" d="M627.839,944.09c21.547-12.945,8.271-44.947-18.171-26.941
																		c0,20.632-71.842,13.996-71.842,37.327C549.386,957.202,578.053,961.143,627.839,944.09"/>
																	<rect x="129.051" y="61.48" fill="none" width="1000" height="1000"/>
																	<path fill="#603325" d="M598.053,990.475c20.765,5.418,71.333-4,67.333-31.447
																		c-2.213-15.188,24-15.885,10.005-32.549c-24.672-9.33-44.115,2.088-44.115,4.666
																		C631.273,962.321,572.722,978.068,598.053,990.475"/>
																	<rect x="129.051" y="61.48" fill="none" width="1000" height="1000"/>
																	<path fill="#27618D" d="M635.85,917.146c0-125.016-14.823-226.174-33.146-226.174c0,3.58-25.896,6.44-67.981,6.44
																		c0,121.433,56.996,203.729,74.945,219.729L635.85,917.146L635.85,917.146z"/>
																	<rect x="129.051" y="61.48" fill="none" width="1000" height="1000"/>
																	<path fill="#2F7ABB" d="M537.828,697.002c0-26.451,91.193-47.854,203.895-47.854
																		c41.663,41.825-69.003,240.664-66.332,277.33c0,2.578-26.671-9.334-44.114,4.666
																		C614.052,911.813,577.563,831.813,537.828,697.002"/>
																	<rect x="129.051" y="61.48" fill="none" width="1000" height="1000"/>
																	<path fill="#611A0C" d="M577.563,377.177c-56.178,34.636-56.844,65.305-44.612,93.726"/>
																	<rect x="129.051" y="61.48" fill="none" width="1000" height="1000"/>
																	<path fill="#611A0C" d="M608.382,368.813c-8.083,0-13.838,6.333-16.665,14.333c0-8.659,0.726-20.646,1.828-21.75
																		c2.109-2.112,4.125-5.403,9.225-5.403C602.769,355.993,606.327,365.494,608.382,368.813"/>
																	<rect x="129.051" y="61.48" fill="none" width="1000" height="1000"/>
																	<path fill="#151313" d="M740.064,639.924c0.224,4.61,0.739,9.226,1.655,9.226h-1.655
																		c-109.866,41.825-202.235,56.666-213.517,43.833c-3.164,0-5.724-1.372-5.724-3.069
																		C520.827,662.281,623.722,662.137,740.064,639.924"/>
																	<rect x="129.051" y="61.48" fill="none" width="1000" height="1000"/>
																	<path fill="#8D2B20" d="M763.683,371.147c29.035,42-3.616,128.11-23.616,268.777
																		c-123.417,34.953-179.071,56.154-219.237,49.987c-119.167-81.166-18.459-175.416,3.399-205.533
																		c35.315-48.656,9.822-69.231,69.315-122.981c62.74,0,109.84-13.242,113.51-30.447
																		C735.368,346.595,763.683,361.397,763.683,371.147"/>
																	<rect x="129.051" y="61.48" fill="none" width="1000" height="1000"/>
																	<path fill="#611A0C" d="M757.52,361.75c29.857,32.063,48.031,158.717,47.191,189.396
																		c-5.334,22.666-20.668,44-41.334,61.332c-9.782,8.613-15.32,14.061-21.181,12.945
																		c-14.069-2.672-20.153-29.205-20.153-39.611v-4c-9.492-16.666-23.326-40-46.652-80
																		C675.391,424.396,712.122,361.75,757.52,361.75"/>
																	<rect x="129.051" y="61.48" fill="none" width="1000" height="1000"/>
																	<path fill="#D8B7AF" d="M696.919,261.526c-51.565,0-93.292,41.323-93.292,92.39c-2.076,6.903,0,11.244,0,11.244
																		c7.257,21.987,80.258,14.154,93.647-28.837C697.079,336.323,701.885,302.985,696.919,261.526"/>
																	<rect x="129.051" y="61.48" fill="none" width="1000" height="1000"/>
																	<path fill="#611A0C" d="M641.384,377.177c19.495-11.903,44.396-26.768,55.894-48.268c0,0,6.276-4.803,9.776,2.04
																		c-15.273,38.657-30.721,49.593-52.831,60.594C654.223,377.771,648.224,377.177,641.384,377.177"/>
																	<rect x="129.051" y="61.48" fill="none" width="1000" height="1000"/>
																	<path fill="#999998" d="M696.916,257.994c-31.563,0-57.104-36.422-57.104-81.432
																		c45.968-3.583,59.548,32.063,63.235,37.167v0.75l1.25-17.75l1.25,21.25l2.75-21.25v24l9.75-18.5l-7.5,20.75
																		c0,39.676-5.938,73.029-13.273,73.029C697.077,296.009,696.916,271.979,696.916,257.994"/>
																	<rect x="129.051" y="61.48" fill="none" width="1000" height="1000"/>
																	<path fill="#F6D1C4" d="M685.384,265.149c0-42.248,8.167-89.919-49.534-88.667
																		c-59.417,1.291-48.448,52.899-57.789,94.103c-9.344,41.231-2.677,87.967,57.789,73.231
																		C666.857,336.261,685.384,307.397,685.384,265.149"/>
																	<rect x="129.051" y="61.48" fill="none" width="1000" height="1000"/>
																	<path fill="#F6D1C4" d="M593.544,318.73c-27.494,39.75,28.506,48,39.757,13.5"/>
																	<rect x="129.051" y="61.48" fill="none" width="1000" height="1000"/>
																	<path fill="#999998" d="M584.692,295.722c-10.938,12.527,22.543,7.008,39.855-5.742
																		c4.5-3.25,11.3,4.972,14.001,10.25c0.61-23.363-17.001-22.25-34.902-12.5c-17.692,9.634-29.599-8.397-24.099,3.875
																		c4.362-5-4.385,5.912,6.482,0.381L584.692,295.722z"/>
																	<rect x="129.051" y="61.48" fill="none" width="1000" height="1000"/>
																	<path fill="#B8E3EC" d="M602.304,250.494c-0.299-6.621-5.281-11.773-11.135-11.51l-17.65,0.796
																		c-5.85,0.264-10.351,5.844-10.051,12.465l0.449,9.996c0.299,6.621,5.282,11.774,11.135,11.51l17.648-0.796
																		c5.852-0.264,10.352-5.844,10.055-12.465L602.304,250.494z"/>
																	<rect x="129.051" y="61.48" fill="none" width="1000" height="1000"/>
																	<path fill="#C2A39A" d="M593.384,268.482c-9.385,6.667-21.541,7.933-21.541,22.6
																		c4.438,10.163,24.541,2.929,38.875-6.6c7.084-4.667,4.313-9.333,2-9.333c2.666-9.334,0.299-18.667-13.334-18.667
																		C593.384,262.482,596.384,265.815,593.384,268.482"/>
																	<rect x="129.051" y="61.48" fill="none" width="1000" height="1000"/>
																	<path fill="#B8E3EC" d="M657.599,245.824c-0.299-6.621-5.905-11.746-12.526-11.447l-19.975,0.9
																		c-6.621,0.299-11.746,5.908-11.444,12.528l0.447,9.997c0.301,6.619,5.908,11.744,12.529,11.446l19.972-0.9
																		c6.621-0.299,11.746-5.907,11.447-12.528L657.599,245.824z"/>
																	<rect x="129.051" y="61.48" fill="none" width="1000" height="1000"/>
																	<path fill="#F6D1C4" d="M681.551,250.73c0-3.04,5.703-5.5,12.75-5.5c8,1.25-2.349,38.5-5.25,38.5c0,0-7.5,3.75-9-2
																		"/>
																</g>
															</g>
														</g>
														<g id="Layer_7">
														</g>
													</g>
												</g>
											</g>
										</g>
									</g>
								</g>
							</g>
						</g>
					</g>
				</g>
			</g>
		</g>
	</g>
</g>
<rect x="-84.19" y="322.358" fill="none" width="713.241" height="713.241"/>
<rect x="-84.19" y="322.358" fill="none" width="713.241" height="713.241"/>
<rect x="129.051" y="61.48" fill="none" width="1000" height="1000"/>
<rect x="129.051" y="61.48" fill="none" width="1000" height="1000"/>
<rect x="129.051" y="61.48" fill="none" width="1000" height="1000"/>
<rect x="129.051" y="61.48" fill="none" width="1000" height="1000"/>
<rect x="129.051" y="61.48" fill="none" width="1000" height="1000"/>
<rect x="129.051" y="61.48" fill="none" width="1000" height="1000"/>
<rect x="129.051" y="61.48" fill="none" width="1000" height="1000"/>
</svg>
