<?xml version="1.0" standalone="no"?>
<!DOCTYPE svg PUBLIC "-//W3C//DTD SVG 20010904//EN"
 "http://www.w3.org/TR/2001/REC-SVG-20010904/DTD/svg10.dtd">
<svg version="1.0" xmlns="http://www.w3.org/2000/svg"
 width="900.000000pt" height="900.000000pt" viewBox="0 0 900.000000 900.000000"
 preserveAspectRatio="xMidYMid meet">
<metadata>
Created by potrace 1.10, written by Peter Selinger 2001-2011
</metadata>
<g transform="translate(0.000000,900.000000) scale(0.100000,-0.100000)"
fill="#000000" stroke="none">
<path d="M3320 8979 c-14 -19 -48 -32 -295 -111 -188 -61 -419 -159 -614 -259
-226 -116 -268 -141 -461 -269 -195 -130 -211 -141 -261 -183 -24 -20 -89 -73
-144 -118 -55 -45 -140 -121 -190 -169 -49 -48 -102 -98 -117 -111 -42 -38
-224 -236 -298 -324 -88 -106 -235 -303 -292 -390 -114 -176 -138 -214 -138
-219 0 -3 -22 -43 -49 -88 -51 -87 -167 -322 -221 -448 -64 -149 -164 -436
-190 -542 -10 -43 -25 -87 -34 -100 -14 -20 -16 -80 -16 -497 0 -261 3 -471 7
-467 4 3 10 98 14 209 6 198 19 327 41 417 6 25 14 68 19 95 14 89 33 164 104
410 10 33 24 75 31 93 8 18 14 39 14 47 0 14 20 66 46 118 8 16 14 35 14 44 0
8 6 27 13 41 8 15 21 42 30 60 9 19 17 38 17 43 0 9 54 131 71 159 5 8 12 22
15 30 14 34 48 99 90 175 24 44 51 94 60 110 8 17 23 44 34 60 11 17 23 37 27
45 4 8 26 43 50 77 24 35 43 66 43 69 0 7 267 362 296 394 13 14 35 39 49 55
132 151 312 331 464 463 14 13 37 33 51 46 55 50 383 290 452 331 10 5 59 36
110 67 133 81 145 88 328 178 155 77 182 89 270 127 19 8 48 21 63 29 16 8 35
14 44 14 8 0 27 6 41 14 30 15 81 33 127 46 39 11 91 29 133 46 18 8 43 14 55
14 12 1 33 7 47 15 14 8 36 14 50 15 14 0 45 6 70 14 69 22 139 38 200 46 30
4 68 13 83 19 16 6 47 11 70 11 23 0 80 7 127 15 55 10 150 15 272 15 179 0
246 9 233 30 -4 6 -188 10 -523 10 -508 -1 -517 -1 -532 -21z"/>
<path d="M4600 8991 c0 -22 35 -26 245 -32 216 -6 366 -19 455 -41 25 -6 68
-14 95 -18 56 -8 128 -25 195 -46 25 -8 56 -14 70 -14 14 -1 36 -7 50 -15 14
-8 35 -14 47 -15 12 0 37 -6 55 -14 42 -17 94 -35 133 -46 46 -13 97 -31 127
-46 14 -8 33 -14 41 -14 9 0 28 -6 44 -14 28 -14 80 -38 138 -62 31 -13 352
-172 383 -189 15 -8 63 -37 247 -148 11 -7 36 -24 56 -39 20 -16 40 -28 43
-28 4 0 12 -5 19 -10 7 -6 62 -47 122 -92 300 -223 573 -483 812 -773 75 -92
199 -258 206 -277 3 -10 11 -18 17 -18 5 0 10 -5 10 -10 0 -10 37 -68 51 -80
3 -3 9 -12 13 -20 4 -8 12 -24 19 -35 7 -11 24 -38 37 -60 14 -23 31 -50 38
-60 6 -11 17 -29 22 -40 6 -11 19 -33 30 -50 11 -16 22 -37 26 -45 3 -8 9 -22
14 -30 44 -78 177 -362 215 -460 9 -25 23 -60 31 -78 8 -18 14 -40 14 -50 0
-9 7 -26 15 -36 8 -11 15 -28 15 -38 0 -9 6 -32 14 -50 7 -18 21 -60 30 -93
10 -33 22 -73 27 -90 11 -32 35 -125 48 -190 5 -22 13 -60 19 -85 21 -86 33
-155 42 -230 5 -41 13 -106 19 -145 6 -38 11 -160 11 -270 0 -211 4 -245 26
-245 12 0 14 86 14 534 0 518 -1 534 -19 539 -18 4 -52 96 -110 297 -17 59
-57 169 -110 305 -49 122 -266 560 -309 622 -11 15 -46 71 -78 123 -32 52 -68
109 -80 125 -129 174 -230 304 -298 384 -124 147 -378 402 -511 513 -66 55
-140 117 -164 137 -92 77 -316 230 -477 326 -311 187 -629 331 -949 431 -178
55 -219 71 -236 93 -17 21 -23 21 -538 21 -319 0 -521 -4 -521 -9z"/>
<path d="M4143 8249 c-6 -6 -26 -12 -44 -14 -43 -3 -178 -23 -245 -36 -28 -5
-69 -23 -90 -39 -22 -16 -52 -32 -66 -35 -40 -10 -185 -157 -269 -272 -162
-222 -193 -269 -220 -333 -6 -14 -17 -38 -25 -53 -8 -16 -14 -38 -14 -50 0
-12 -7 -40 -15 -62 -8 -22 -14 -57 -15 -77 0 -20 -7 -63 -15 -95 -20 -77 -21
-297 0 -345 10 -25 14 -77 14 -182 1 -150 8 -184 45 -215 9 -8 16 -28 16 -46
0 -63 139 -239 172 -218 5 2 6 12 4 21 -7 22 8 47 23 38 6 -4 11 -16 11 -26 0
-10 10 -40 21 -67 12 -26 21 -60 20 -75 -1 -15 5 -38 14 -52 13 -20 15 -38 10
-90 -7 -63 -6 -65 26 -100 32 -35 36 -36 74 -28 47 9 52 31 13 50 -22 10 -28
20 -28 45 0 18 -6 44 -14 58 -7 15 -14 47 -14 73 -1 26 -4 52 -8 58 -16 25
-44 158 -44 209 0 61 -7 72 -64 115 -40 29 -86 110 -86 150 0 29 23 36 57 19
31 -16 69 -20 77 -7 3 5 -6 32 -20 61 -43 90 -43 113 4 174 44 56 76 122 67
136 -7 12 22 195 40 255 8 27 30 72 49 100 38 57 112 136 126 136 16 0 11 30
-5 36 -8 4 -15 17 -15 30 0 33 -21 30 -56 -8 -101 -109 -182 -254 -190 -341
-5 -48 -47 -154 -66 -168 -5 -3 -6 -24 -2 -47 4 -23 2 -54 -4 -69 -6 -16 -13
-40 -16 -55 -3 -15 -15 -29 -25 -33 -26 -8 -49 -74 -30 -85 10 -7 10 -14 1
-35 -7 -14 -12 -37 -12 -50 0 -25 -4 -27 -57 -29 -16 -1 -18 9 -19 79 0 44 -6
139 -14 212 -14 132 -14 132 10 182 20 43 21 53 9 67 -12 14 -16 49 -21 154
-1 21 62 170 93 220 5 8 25 47 44 86 22 47 49 83 79 109 25 21 46 44 46 50 0
6 20 30 45 53 25 23 45 51 45 62 0 20 16 28 22 10 5 -16 48 1 48 19 0 22 19
41 42 41 10 0 18 5 18 10 0 6 -4 10 -10 10 -5 0 -10 5 -10 10 0 6 7 10 15 10
8 0 15 -5 15 -10 0 -13 37 5 150 73 60 36 79 53 66 55 -10 2 -28 0 -40 -6 -45
-21 -159 -45 -169 -36 -10 10 32 44 54 44 11 0 30 5 42 12 24 12 65 19 112 19
17 -1 44 6 61 14 17 8 51 15 75 15 24 0 95 0 156 1 112 0 113 0 123 -25 9 -26
10 -26 92 -20 80 6 83 5 93 -17 14 -33 67 -45 105 -23 24 15 31 15 45 4 9 -7
14 -21 12 -31 -9 -34 92 -29 134 7 22 19 26 18 33 -11 4 -17 13 -25 29 -25 21
-1 77 -41 77 -57 0 -4 18 -19 40 -33 40 -24 150 -153 150 -175 0 -7 9 -20 20
-30 11 -10 20 -23 20 -29 0 -5 20 -40 45 -77 25 -37 45 -77 45 -89 0 -11 9
-38 20 -58 26 -51 35 -76 38 -113 1 -9 11 -19 22 -22 16 -4 20 -14 20 -46 0
-23 7 -53 16 -66 10 -15 14 -34 10 -49 -4 -16 1 -32 14 -49 23 -30 9 -48 -18
-24 -23 21 -68 31 -76 18 -7 -11 -86 22 -86 37 0 4 -22 30 -48 57 -26 28 -51
58 -55 68 -3 9 -11 17 -16 17 -5 0 -17 21 -27 48 -10 26 -30 59 -44 73 -31 29
-35 38 -51 129 -31 183 -29 178 -69 148 -40 -30 -44 -46 -17 -82 13 -17 28
-49 34 -71 7 -22 18 -62 27 -90 15 -51 10 -121 -11 -147 -14 -18 -25 -96 -14
-102 10 -6 41 70 41 101 0 22 25 50 33 36 2 -4 10 -26 17 -48 7 -22 24 -61 39
-88 20 -37 34 -50 61 -57 48 -13 70 -53 70 -124 0 -68 11 -71 77 -21 62 47 73
46 73 -10 0 -50 -21 -102 -62 -157 -47 -61 -46 -89 5 -161 13 -17 23 -64 33
-144 22 -190 36 -277 45 -289 6 -7 1 -21 -11 -37 -11 -14 -20 -31 -20 -39 0
-16 -35 -48 -54 -48 -18 0 -49 -37 -41 -49 3 -6 15 -11 26 -11 21 0 25 -10 9
-26 -5 -5 -12 -49 -14 -97 -2 -48 -10 -94 -16 -103 -7 -8 -17 -31 -21 -52 -24
-107 -35 -148 -40 -157 -4 -5 -10 -40 -13 -76 -4 -36 -14 -78 -22 -94 -8 -15
-14 -42 -14 -60 0 -35 13 -45 56 -45 17 0 27 -8 35 -27 16 -43 110 -141 149
-155 14 -5 41 -31 61 -57 36 -47 37 -49 29 -112 -7 -60 -60 -226 -88 -276 -7
-12 -12 -26 -12 -32 0 -14 -26 -39 -70 -71 -19 -13 -37 -27 -40 -30 -3 -3 -31
-17 -62 -32 -32 -15 -58 -32 -58 -38 0 -5 -15 -10 -34 -10 -40 0 -66 -8 -66
-22 0 -12 69 0 97 18 12 8 35 14 51 14 16 0 42 12 62 30 19 16 41 29 48 30 6
0 12 3 12 8 0 4 22 22 48 41 61 44 109 108 93 124 -16 16 -14 47 4 47 12 0 15
13 15 55 0 30 4 55 10 55 5 0 12 27 16 60 9 83 21 80 39 -7 6 -28 9 -31 25
-23 24 13 35 49 21 63 -6 6 -11 25 -11 42 -1 19 -12 43 -33 67 -40 47 -135
118 -157 118 -9 0 -26 11 -39 24 -23 25 -26 35 -72 298 -9 57 -4 80 34 153 6
11 14 36 18 55 4 19 12 53 18 75 6 22 11 98 12 168 1 88 5 129 12 132 7 2 24
6 39 9 16 4 34 18 41 33 12 23 12 32 -5 76 -17 45 -18 58 -8 119 10 56 9 76
-2 106 -18 48 -15 112 6 127 9 7 16 18 16 26 0 40 25 91 60 125 39 38 50 70
30 90 -6 6 -12 62 -13 125 -2 62 -9 127 -15 142 -7 16 -12 39 -12 51 0 13 -7
29 -14 36 -11 8 -15 32 -14 83 1 63 -3 80 -30 134 -18 34 -32 67 -32 72 0 38
-185 335 -264 426 -27 30 -65 76 -84 100 -34 44 -171 145 -196 145 -7 0 -28 8
-47 17 -25 13 -61 18 -132 19 -58 1 -119 8 -150 17 -113 35 -180 47 -252 47
-43 0 -75 4 -75 10 0 14 -63 13 -77 -1z m1297 -1261 c0 -32 -3 -39 -10 -28
-13 20 -13 70 0 70 6 0 10 -19 10 -42z"/>
<path d="M4270 8110 c-12 -8 -12 -10 2 -15 20 -8 41 2 33 16 -8 11 -16 11 -35
-1z"/>
<path d="M4030 7894 c-51 -8 -100 -25 -100 -35 0 -6 4 -8 8 -5 5 3 41 0 81 -6
55 -8 78 -8 95 2 13 6 32 10 43 8 20 -3 53 17 53 33 0 9 -128 10 -180 3z"/>
<path d="M3782 7807 c-7 -8 -27 -17 -44 -21 -23 -4 -29 -9 -21 -17 14 -14 73
-2 80 17 9 23 -1 38 -15 21z"/>
<path d="M4493 7733 c-20 -8 -15 -23 7 -23 11 0 20 7 20 15 0 15 -6 17 -27 8z"/>
<path d="M4370 7665 c0 -8 6 -15 14 -15 8 0 16 7 20 15 4 10 -1 15 -14 15 -11
0 -20 -7 -20 -15z"/>
<path d="M3925 7660 c-4 -6 9 -10 32 -10 28 0 34 3 23 10 -20 13 -47 13 -55 0z"/>
<path d="M4130 7650 c0 -5 11 -10 25 -10 14 0 25 5 25 10 0 6 -11 10 -25 10
-14 0 -25 -4 -25 -10z"/>
<path d="M3752 7616 c-37 -21 -36 -24 19 -35 44 -10 55 -9 68 4 13 13 13 16
-4 30 -24 17 -52 18 -83 1z"/>
<path d="M4501 7611 c-18 -11 -7 -43 13 -35 18 7 28 44 13 44 -7 0 -18 -4 -26
-9z"/>
<path d="M4718 7569 c-44 -44 -46 -49 -15 -49 23 0 101 73 90 84 -14 13 -40 1
-75 -35z"/>
<path d="M4550 7576 c0 -8 -15 -15 -38 -18 -34 -5 -97 -32 -170 -73 -13 -7
-30 -22 -38 -34 -13 -18 -22 -21 -52 -16 -37 6 -73 19 -102 36 -36 21 -94 49
-102 49 -4 0 -8 -4 -8 -10 0 -19 38 -47 86 -65 27 -9 61 -23 76 -31 14 -8 42
-14 61 -14 20 0 39 -4 42 -10 3 -5 17 -10 30 -10 20 0 24 6 27 38 2 29 8 38
25 40 12 2 27 10 33 18 12 13 50 20 50 9 0 -15 -46 -65 -59 -65 -11 0 -12 -3
-3 -12 9 -9 16 -8 30 5 10 9 24 17 30 17 7 0 12 4 12 8 0 5 20 29 45 53 31 31
45 52 45 72 0 15 -4 27 -10 27 -5 0 -10 -6 -10 -14z"/>
<path d="M4152 7548 c-17 -17 -15 -45 3 -52 37 -14 69 29 39 51 -22 16 -27 16
-42 1z"/>
<path d="M4568 7469 c-79 -53 -93 -69 -59 -69 31 0 160 91 161 113 0 17 -29 4
-102 -44z"/>
<path d="M3740 7502 c0 -14 23 -32 42 -32 21 0 23 11 6 28 -13 13 -48 16 -48
4z"/>
<path d="M3952 7488 c4 -27 81 -81 106 -75 14 4 13 6 -5 12 -13 4 -23 11 -23
15 0 4 -11 12 -24 18 -13 6 -27 20 -31 31 -9 28 -27 27 -23 -1z"/>
<path d="M4164 7358 c-3 -4 11 -8 30 -8 20 0 36 2 36 4 0 8 -61 12 -66 4z"/>
<path d="M4256 7351 c-3 -5 1 -12 10 -15 25 -10 34 -7 34 9 0 16 -35 21 -44 6z"/>
<path d="M4790 7345 c0 -8 5 -15 10 -15 6 0 10 7 10 15 0 8 -4 15 -10 15 -5 0
-10 -7 -10 -15z"/>
<path d="M4037 7274 c-9 -10 2 -24 19 -24 8 0 14 7 14 15 0 15 -21 21 -33 9z"/>
<path d="M3352 7247 c-18 -21 -24 -64 -12 -86 21 -40 34 -26 45 53 6 37 4 46
-8 46 -8 0 -19 -6 -25 -13z"/>
<path d="M4550 7230 c0 -23 31 -27 49 -7 14 17 4 27 -26 27 -16 0 -23 -6 -23
-20z"/>
<path d="M4886 7060 c-16 -5 -33 -7 -38 -4 -4 3 -11 -2 -14 -10 -5 -13 -20
-16 -73 -14 -36 1 -84 -4 -106 -10 -22 -7 -52 -14 -67 -17 -20 -4 -34 -17 -48
-45 -26 -51 -25 -62 5 -90 l25 -24 15 21 c8 12 30 24 48 28 32 7 77 21 152 49
22 8 63 15 91 16 28 0 65 5 83 11 28 10 36 8 71 -16 64 -44 96 -14 43 40 -27
27 -124 76 -147 74 -6 0 -24 -5 -40 -9z"/>
<path d="M3256 6972 c-3 -6 -1 -14 5 -17 15 -10 25 3 12 16 -7 7 -13 7 -17 1z"/>
<path d="M5113 6893 c-26 -5 -30 -18 -9 -30 15 -9 46 -92 46 -123 0 -28 19
-34 42 -13 18 16 20 26 14 83 -7 84 -22 97 -93 83z"/>
<path d="M3940 6879 c-25 -5 -70 -13 -100 -17 -30 -5 -68 -14 -84 -21 -24 -10
-30 -9 -40 5 -20 27 -66 8 -113 -47 -68 -79 -50 -142 21 -73 31 30 39 33 56
24 15 -8 30 -8 53 -1 47 15 288 43 344 39 47 -3 48 -2 51 27 3 29 0 31 -62 53
-36 12 -68 21 -73 21 -4 -1 -28 -5 -53 -10z"/>
<path d="M4426 6838 c-14 -20 -22 -68 -12 -68 3 0 17 5 33 12 15 6 46 16 68
22 22 6 40 16 40 21 0 6 -18 11 -40 13 -22 2 -44 8 -49 13 -15 14 -23 11 -40
-13z"/>
<path d="M4836 6805 c16 -13 17 -16 4 -25 -19 -13 -107 -13 -115 0 -3 6 -15
10 -25 10 -23 0 -90 -38 -90 -51 0 -5 -9 -9 -20 -9 -25 0 -36 -25 -20 -45 13
-16 105 -12 168 7 54 16 165 38 192 38 14 0 34 -7 44 -15 25 -19 57 -19 82 0
18 15 18 16 -15 45 -43 37 -110 60 -175 60 -46 0 -48 -1 -30 -15z m-126 -45
c0 -5 -9 -10 -20 -10 -11 0 -20 5 -20 10 0 6 9 10 20 10 11 0 20 -4 20 -10z"/>
<path d="M4180 6790 c-8 -5 -25 -10 -38 -10 -14 0 -22 -5 -20 -12 3 -8 28 -14
68 -16 l63 -3 -24 25 c-27 29 -28 29 -49 16z"/>
<path d="M4327 6728 c-47 -21 -57 -40 -23 -46 10 -2 25 3 34 11 9 9 31 17 47
19 19 2 30 9 30 18 0 23 -35 22 -88 -2z"/>
<path d="M4402 6688 c-19 -19 -15 -31 38 -102 37 -48 57 -66 74 -66 13 0 29
-7 36 -15 13 -15 51 -20 63 -8 13 12 -15 33 -44 33 -29 0 -34 8 -41 70 -2 15
-12 29 -25 35 -13 5 -23 15 -23 22 0 13 -38 43 -55 43 -6 0 -16 -5 -23 -12z"/>
<path d="M3952 6646 c-24 -17 -51 -25 -106 -29 -60 -5 -83 -12 -120 -38 -49
-33 -66 -55 -66 -88 0 -27 11 -26 55 3 21 15 63 29 108 36 39 6 97 18 127 26
37 9 78 12 122 7 74 -6 86 2 74 52 -5 19 -18 28 -58 40 -71 21 -99 19 -136 -9z"/>
<path d="M4205 6648 c-7 -25 -16 -94 -18 -148 -2 -42 1 -55 13 -58 19 -3 50
56 50 95 0 15 5 41 12 59 9 26 9 36 -1 48 -16 19 -50 21 -56 4z"/>
<path d="M5151 6624 c-12 -19 -21 -39 -21 -43 0 -13 -54 -59 -85 -72 -51 -21
-154 -32 -292 -33 -116 -1 -133 -3 -133 -17 0 -29 53 -42 138 -35 42 4 131 11
197 14 116 7 120 8 119 30 -1 26 17 28 52 6 23 -16 26 -15 44 1 11 10 22 34
25 54 3 20 11 51 17 70 9 30 8 36 -8 48 -26 19 -30 17 -53 -23z"/>
<path d="M4815 6639 c-22 -4 -65 -8 -96 -8 -65 -1 -99 -24 -53 -35 58 -15 161
-8 203 14 70 35 44 50 -54 29z"/>
<path d="M6653 6635 c-3 -9 -3 -18 0 -21 9 -9 27 6 27 22 0 19 -19 18 -27 -1z"/>
<path d="M3580 6610 c0 -5 9 -10 20 -10 11 0 20 5 20 10 0 6 -9 10 -20 10 -11
0 -20 -4 -20 -10z"/>
<path d="M8062 6573 c-75 -18 -78 -37 -6 -40 60 -2 106 14 102 36 -4 21 -21
22 -96 4z"/>
<path d="M7672 6557 c-15 -18 -5 -27 30 -27 18 0 28 5 28 15 0 8 -4 15 -9 15
-5 0 -16 2 -24 5 -7 3 -19 0 -25 -8z"/>
<path d="M7795 6551 c-7 -12 31 -25 45 -16 6 4 8 11 5 16 -8 12 -42 12 -50 0z"/>
<path d="M5980 6535 c-14 -8 -38 -14 -53 -15 -16 0 -26 -4 -23 -9 3 -4 29 -4
58 0 29 5 72 6 96 3 50 -7 53 -1 10 20 -38 19 -56 20 -88 1z"/>
<path d="M6403 6534 c-32 -14 -45 -34 -22 -34 28 0 89 24 86 34 -5 16 -28 16
-64 0z"/>
<path d="M6933 6540 c-27 -11 -30 -28 -7 -37 16 -6 58 30 47 41 -8 7 -12 7
-40 -4z"/>
<path d="M7010 6536 c0 -14 21 -26 46 -26 8 0 14 9 14 20 0 16 -7 20 -30 20
-19 0 -30 -5 -30 -14z"/>
<path d="M7250 6541 c0 -10 24 -21 48 -21 13 0 12 3 -4 15 -21 16 -44 19 -44
6z"/>
<path d="M6225 6524 c-19 -14 -17 -15 29 -12 28 2 51 8 54 16 6 18 -58 15 -83
-4z"/>
<path d="M6500 6525 c0 -10 7 -15 18 -13 21 4 19 22 -2 26 -10 2 -16 -3 -16
-13z"/>
<path d="M7110 6526 c0 -9 7 -16 16 -16 9 0 14 5 12 12 -6 18 -28 21 -28 4z"/>
<path d="M3520 6496 c0 -19 5 -38 11 -41 5 -4 14 -18 20 -32 16 -43 34 -21 37
45 l3 62 -36 0 c-33 0 -35 -2 -35 -34z"/>
<path d="M6770 6520 c0 -5 9 -10 20 -10 11 0 20 5 20 10 0 6 -9 10 -20 10 -11
0 -20 -4 -20 -10z"/>
<path d="M5820 6510 c0 -5 11 -10 25 -10 14 0 25 5 25 10 0 6 -11 10 -25 10
-14 0 -25 -4 -25 -10z"/>
<path d="M3985 6491 c-3 -5 -31 -17 -63 -26 -31 -10 -66 -22 -77 -27 -19 -11
-19 -11 2 -19 22 -8 108 16 135 38 7 6 24 13 37 15 37 5 39 28 2 28 -16 0 -32
-4 -36 -9z"/>
<path d="M4400 6435 c0 -8 5 -15 10 -15 6 0 10 7 10 15 0 8 -4 15 -10 15 -5 0
-10 -7 -10 -15z"/>
<path d="M4134 6367 c-3 -8 -18 -17 -35 -21 -16 -3 -29 -10 -29 -16 0 -16 50
-12 56 5 4 8 12 15 20 15 16 0 19 16 4 25 -6 3 -13 0 -16 -8z"/>
<path d="M4630 6349 c0 -17 50 -69 67 -69 18 0 51 -19 91 -52 18 -16 36 -28
40 -28 5 0 54 -46 111 -102 80 -79 105 -98 112 -87 23 37 -3 95 -65 142 -24
17 -73 57 -109 88 -72 60 -85 67 -167 94 -30 10 -61 20 -67 23 -7 2 -13 -2
-13 -9z"/>
<path d="M3974 6305 c-10 -8 -32 -15 -49 -15 -16 0 -43 -7 -59 -15 -15 -8 -32
-12 -37 -9 -13 7 -51 -15 -44 -27 4 -5 14 -9 24 -9 25 0 119 28 154 46 16 8
37 14 47 14 25 0 50 10 50 21 0 15 -65 10 -86 -6z"/>
<path d="M4130 6259 c-60 -40 -119 -100 -120 -122 0 -10 -22 -44 -50 -76 -27
-32 -50 -61 -50 -65 0 -4 -12 -23 -26 -42 -32 -41 -36 -100 -10 -139 26 -39
40 -25 47 43 3 34 12 70 20 80 8 9 23 33 33 52 10 19 27 44 37 55 10 11 21 33
25 48 4 17 16 32 30 38 19 7 23 14 19 32 -6 21 1 29 42 55 64 42 75 51 68 63
-9 13 -15 11 -65 -22z"/>
<path d="M4472 6123 c-25 -31 -28 -54 -10 -82 19 -31 3 -54 -32 -46 -27 6 -36
1 -75 -40 -52 -53 -46 -60 40 -53 58 5 90 25 106 65 5 15 20 24 46 29 21 4 50
13 64 20 30 15 77 101 63 114 -5 4 -47 11 -94 14 -85 7 -86 6 -108 -21z"/>
<path d="M4210 6084 c-21 -21 -22 -27 -10 -34 8 -5 25 -10 38 -10 12 0 38 -6
56 -14 20 -8 39 -10 47 -5 11 7 4 18 -30 49 -51 47 -69 49 -101 14z"/>
<path d="M4919 5982 c-13 -11 -66 -26 -119 -36 -98 -18 -180 -38 -262 -62 -26
-8 -69 -14 -96 -14 -27 0 -69 -7 -92 -15 -23 -8 -56 -15 -72 -15 -19 0 -28 -4
-25 -12 2 -8 17 -12 35 -10 17 2 40 -2 51 -8 16 -8 22 -7 31 10 13 24 56 27
88 4 20 -14 24 -14 39 2 13 13 28 15 68 10 44 -5 55 -3 70 14 10 11 30 20 45
20 15 0 33 7 40 15 30 36 69 -4 48 -49 -8 -19 -19 -26 -40 -26 -18 0 -28 -5
-28 -15 0 -8 -17 -19 -40 -26 -46 -14 -68 -34 -46 -42 7 -3 25 0 39 8 27 14
74 29 120 39 15 4 55 33 88 66 57 57 90 73 104 50 23 -37 34 22 14 79 -13 36
-26 39 -60 13z"/>
<path d="M3973 5797 c-7 -12 7 -88 23 -119 8 -15 14 -38 14 -52 0 -30 16 -42
35 -26 11 9 12 17 5 30 -7 13 -7 21 0 25 5 3 10 19 10 36 0 39 27 39 115 -2
60 -29 76 -32 158 -31 56 1 105 7 127 16 19 8 44 17 54 20 13 5 16 10 9 17 -6
6 -24 7 -54 0 -30 -7 -77 -7 -144 0 -83 9 -103 14 -118 32 -10 13 -15 31 -12
44 5 23 5 23 -106 21 -61 -1 -113 -6 -116 -11z"/>
<path d="M3625 5780 c-17 -27 64 -212 134 -305 21 -27 43 -60 50 -72 6 -12 31
-36 55 -53 66 -44 87 -80 99 -166 10 -72 21 -91 34 -57 4 9 1 19 -5 21 -19 6
-14 27 12 50 24 21 25 21 31 1 4 -10 13 -19 21 -19 29 0 72 -30 94 -65 18 -29
26 -34 44 -29 11 4 26 7 31 6 21 -1 128 -33 148 -44 30 -16 84 -21 92 -8 10
16 52 12 59 -6 3 -8 11 -12 17 -8 9 5 7 11 -4 19 -10 7 -17 17 -17 23 0 15
-36 25 -68 17 -17 -3 -57 4 -105 20 -43 14 -84 25 -92 25 -8 0 -39 16 -69 35
-30 19 -66 35 -80 35 -19 0 -27 7 -32 26 -7 27 -48 74 -65 74 -5 0 -17 16 -25
35 -8 20 -21 38 -29 42 -8 3 -15 9 -15 14 0 12 -38 49 -50 49 -5 0 -10 7 -10
15 0 8 -9 15 -19 15 -12 0 -21 9 -25 25 -4 14 -18 31 -31 37 -14 6 -27 19 -30
30 -4 10 -17 31 -30 46 -12 15 -29 47 -36 72 -13 46 -53 110 -69 110 -5 0 -11
-4 -15 -10z"/>
<path d="M4740 5635 c-14 -8 -39 -14 -56 -15 -17 0 -37 -7 -44 -15 -7 -8 -23
-15 -35 -15 -13 0 -33 -8 -46 -19 -18 -14 -28 -16 -45 -9 -16 7 -33 5 -68 -11
-25 -12 -46 -26 -46 -31 0 -14 35 -30 64 -30 35 0 23 -29 -15 -37 -16 -3 -32
-9 -35 -14 -9 -15 49 -22 80 -9 17 6 55 16 84 21 65 11 105 36 99 59 -3 12 14
33 49 65 67 59 76 95 14 60z"/>
<path d="M8130 5375 c0 -9 5 -15 11 -13 6 2 11 8 11 13 0 5 -5 11 -11 13 -6 2
-11 -4 -11 -13z"/>
<path d="M5003 5333 c-21 -8 -16 -43 6 -43 20 0 35 25 25 41 -6 10 -12 10 -31
2z"/>
<path d="M4963 5265 c-3 -9 -3 -18 0 -21 9 -9 27 6 27 22 0 19 -19 18 -27 -1z"/>
<path d="M4820 5195 c-28 -30 -22 -39 19 -30 33 7 56 29 46 45 -11 18 -41 11
-65 -15z"/>
<path d="M677 5150 c-9 -24 -15 -28 -34 -24 -16 4 -25 1 -29 -11 -8 -20 10
-40 28 -31 90 46 128 96 72 96 -19 0 -28 -7 -37 -30z"/>
<path d="M521 5074 c-59 -32 -60 -34 -23 -34 22 0 32 5 32 15 0 13 4 14 20 5
25 -13 40 -5 40 21 0 25 -15 23 -69 -7z"/>
<path d="M3913 5068 c-45 -49 -55 -97 -43 -204 12 -115 31 -160 97 -231 83
-89 280 -180 458 -213 156 -29 513 -28 531 1 2 5 24 14 47 20 41 11 41 12 17
21 -52 20 -79 21 -445 16 l-180 -2 -145 59 c-164 67 -213 99 -259 169 -57 85
-84 239 -50 282 5 6 12 32 15 58 8 53 -8 62 -43 24z"/>
<path d="M405 5030 c-4 -7 -3 -16 3 -22 14 -14 45 -2 40 15 -6 16 -34 21 -43
7z"/>
<path d="M4623 5033 c-24 -8 -13 -23 17 -23 17 0 30 4 30 9 0 11 -30 19 -47
14z"/>
<path d="M5680 5008 c0 -17 64 -68 84 -68 8 0 20 -9 26 -20 7 -13 21 -20 40
-20 19 0 30 -5 30 -14 0 -9 16 -17 43 -21 23 -4 52 -13 64 -21 21 -13 39 -13
96 3 41 11 -2 37 -115 69 -38 10 -68 22 -68 26 0 11 -76 48 -97 48 -10 0 -31
7 -47 15 -35 18 -56 19 -56 3z"/>
<path d="M3745 4913 c-16 -9 -32 -19 -35 -22 -3 -4 -18 -14 -33 -24 -38 -25
-43 -42 -18 -73 12 -15 21 -37 21 -51 0 -24 66 -155 82 -161 4 -2 8 -9 8 -16
0 -11 41 -54 116 -123 39 -36 80 -63 94 -63 18 0 -22 47 -55 64 -16 9 -49 46
-73 81 -24 36 -50 65 -58 65 -8 0 -14 9 -14 20 0 12 -9 33 -19 48 -11 15 -24
50 -31 79 -12 55 -7 77 31 118 20 22 36 75 23 75 -5 -1 -22 -8 -39 -17z"/>
<path d="M3575 4812 c-16 -10 -58 -29 -92 -41 -35 -13 -63 -27 -63 -31 0 -5
-13 -11 -30 -15 -16 -4 -30 -11 -30 -16 0 -5 -6 -9 -13 -9 -6 0 -53 -20 -102
-45 -50 -25 -95 -45 -101 -45 -18 0 -296 -126 -354 -160 -8 -5 -46 -25 -85
-44 -62 -31 -222 -130 -235 -145 -3 -4 -38 -28 -77 -54 -79 -52 -88 -71 -48
-100 30 -22 49 -13 41 17 -4 17 2 28 24 44 16 12 32 22 35 22 4 0 21 11 39 25
18 14 47 30 64 36 18 6 32 15 32 19 0 10 66 50 83 50 7 0 22 11 34 24 13 13
40 26 61 29 22 4 48 17 62 32 13 14 31 25 39 25 16 0 255 101 321 135 33 17
151 94 185 120 10 8 27 15 36 15 10 0 20 6 22 13 4 8 6 9 6 0 1 -6 -17 -32
-39 -58 -21 -25 -46 -62 -55 -83 -9 -20 -24 -52 -33 -71 -9 -19 -17 -37 -17
-40 -1 -3 -7 -17 -14 -30 -7 -13 -11 -36 -8 -51 4 -16 0 -35 -8 -46 -9 -12
-14 -42 -14 -79 0 -58 1 -59 13 -30 37 84 59 144 67 184 10 48 30 77 60 86 11
4 22 17 25 30 3 13 17 33 30 46 13 12 24 28 24 35 0 7 9 18 20 24 11 6 31 28
45 50 13 21 43 57 66 79 55 55 45 90 -16 53z"/>
<path d="M6108 4756 c-20 -17 -49 -51 -65 -76 -15 -25 -30 -47 -34 -50 -3 -3
-16 -27 -30 -55 -13 -27 -36 -71 -51 -96 -16 -25 -28 -53 -28 -62 0 -8 -3 -17
-7 -19 -10 -4 -26 -34 -89 -158 -26 -52 -54 -102 -61 -111 -7 -9 -12 -31 -11
-50 2 -27 0 -33 -13 -31 -9 1 -19 -6 -23 -15 -3 -10 -17 -38 -31 -62 -14 -24
-25 -54 -25 -65 0 -12 -7 -30 -15 -40 -8 -11 -15 -27 -15 -37 0 -9 -7 -19 -15
-23 -8 -3 -15 -14 -15 -25 0 -10 -7 -21 -15 -25 -8 -3 -15 -14 -15 -25 0 -11
-4 -22 -9 -25 -9 -6 -42 -72 -54 -108 -4 -10 -11 -18 -17 -18 -5 0 -10 -5 -10
-11 0 -16 -43 -103 -52 -107 -5 -2 -8 -10 -8 -18 0 -13 -20 -58 -52 -114 -4
-8 -11 -22 -14 -30 -22 -55 -37 -88 -50 -112 -8 -15 -14 -53 -14 -90 0 -51 -6
-75 -32 -128 -18 -36 -39 -69 -45 -73 -7 -4 -13 -16 -13 -25 0 -22 -51 -123
-66 -129 -10 -4 -208 17 -344 36 -36 5 -117 10 -180 10 -63 1 -156 8 -208 17
-52 9 -105 13 -118 10 -36 -9 -70 3 -84 30 -8 13 -18 24 -24 24 -6 0 -28 20
-49 45 -21 25 -45 45 -53 45 -8 0 -14 10 -14 25 0 20 6 27 29 31 30 6 49 40
31 58 -9 9 -70 -29 -70 -45 0 -17 -28 -9 -44 14 -14 20 -16 21 -29 5 -16 -20
-15 -124 1 -140 15 -15 32 -1 32 28 0 33 10 30 53 -14 40 -41 47 -62 21 -62
-10 0 -14 -5 -10 -15 3 -9 0 -25 -6 -35 -10 -15 -10 -22 -1 -31 16 -16 63 4
63 26 0 23 41 19 47 -5 3 -11 15 -22 27 -25 87 -17 210 -28 381 -32 110 -3
222 -11 249 -18 43 -10 214 -12 257 -3 20 4 23 -38 5 -64 -9 -12 -16 -30 -16
-39 0 -10 -4 -19 -8 -21 -11 -4 -52 -85 -52 -102 0 -8 -4 -16 -8 -18 -11 -4
-52 -86 -52 -103 0 -8 -4 -15 -8 -15 -4 0 -15 -15 -23 -32 -8 -18 -24 -51 -36
-73 -19 -35 -38 -77 -58 -125 -3 -8 -35 -69 -70 -135 -35 -66 -99 -190 -143
-275 -44 -85 -91 -175 -106 -200 -14 -25 -28 -49 -30 -55 -2 -5 -7 -17 -10
-25 -4 -8 -22 -42 -41 -75 -18 -33 -49 -89 -68 -125 -18 -36 -41 -78 -50 -95
-47 -87 -257 -519 -257 -530 0 -7 -6 -17 -13 -23 -7 -6 -62 -109 -122 -229
-60 -120 -113 -220 -116 -223 -4 -3 -10 -19 -13 -36 -4 -18 -16 -40 -26 -49
-17 -15 -25 -16 -62 -6 -24 7 -72 19 -108 26 -92 19 -167 38 -309 79 -29 9
-59 16 -66 16 -7 0 -26 7 -41 15 -16 8 -41 15 -56 15 -15 0 -29 4 -32 9 -4 5
-24 12 -46 16 -22 4 -42 11 -46 16 -3 5 -13 9 -22 9 -10 0 -34 9 -55 20 -20
11 -44 20 -52 20 -8 0 -23 4 -33 9 -9 6 -43 21 -74 35 -32 14 -58 30 -58 35 0
6 -11 11 -25 11 -14 0 -33 4 -43 10 -9 5 -55 28 -102 50 -47 23 -112 56 -145
74 -33 19 -80 44 -105 57 -25 13 -63 35 -85 49 -68 42 -80 49 -95 56 -8 4 -31
20 -51 36 -20 15 -40 28 -44 28 -4 0 -24 14 -45 30 -21 17 -41 30 -45 30 -7 0
-167 120 -176 132 -3 4 -28 25 -56 46 -94 70 -318 275 -429 392 -151 160 -220
242 -357 425 -149 200 -150 201 -194 277 -16 27 -31 48 -35 48 -5 0 -8 5 -8
10 0 6 -12 29 -27 53 -28 44 -54 90 -122 222 -23 44 -46 87 -51 95 -13 23 -78
166 -116 257 -9 21 -23 51 -30 66 -8 16 -14 36 -14 46 0 9 -7 26 -15 37 -8 10
-15 28 -15 40 0 11 -7 29 -15 40 -8 10 -15 30 -15 44 0 14 -6 34 -14 45 -7 11
-16 34 -18 50 -3 17 -11 45 -17 63 -6 17 -16 47 -22 65 -6 17 -14 50 -18 72
-4 22 -12 56 -18 75 -19 60 -35 133 -43 190 -4 30 -13 68 -19 83 -6 16 -11 47
-11 70 0 23 -6 78 -14 122 -8 44 -16 167 -17 273 -2 106 -7 198 -11 205 -4 7
-8 -212 -8 -486 0 -465 1 -500 19 -535 10 -20 21 -50 25 -67 14 -63 111 -346
163 -480 74 -187 187 -418 290 -593 116 -198 304 -474 372 -547 15 -16 40 -48
56 -70 120 -166 537 -572 721 -701 22 -16 75 -55 116 -87 41 -31 79 -57 84
-57 5 0 34 -19 64 -41 30 -23 66 -46 80 -52 14 -6 39 -22 56 -34 17 -13 34
-23 39 -23 4 0 24 -13 44 -29 20 -16 57 -37 82 -47 24 -9 51 -23 59 -29 8 -7
36 -20 63 -30 26 -10 47 -22 47 -26 0 -5 17 -17 38 -27 20 -10 46 -23 57 -29
50 -28 145 -63 169 -63 14 0 26 -4 26 -10 0 -14 55 -40 85 -40 14 0 25 -6 25
-14 0 -8 29 -22 73 -36 39 -12 88 -27 107 -33 19 -6 42 -17 50 -24 10 -8 30
-10 53 -6 30 4 43 1 60 -14 12 -12 43 -24 69 -27 26 -4 50 -11 53 -17 4 -5 21
-9 40 -9 19 0 36 -4 39 -9 3 -5 14 -7 25 -4 21 5 81 -22 81 -37 0 -6 75 -10
196 -10 193 0 195 0 189 21 -5 14 0 28 13 42 27 31 92 132 92 144 0 5 9 18 21
29 27 24 89 149 89 179 0 12 7 28 15 35 8 7 15 20 15 30 0 9 9 29 20 43 11 14
20 30 20 35 0 5 16 33 36 62 20 29 41 68 46 87 5 19 22 55 38 81 16 26 37 65
47 87 9 22 34 73 55 114 21 41 38 82 38 91 0 9 11 27 25 40 14 13 25 35 25 49
0 14 11 36 24 48 13 13 31 38 40 57 9 20 21 38 26 41 6 3 10 21 10 40 0 19 6
38 13 42 14 8 107 191 107 209 0 6 11 20 25 32 14 12 25 31 25 41 0 29 47 118
81 152 16 16 31 42 35 57 3 15 14 43 25 63 10 20 19 44 19 52 0 9 11 29 25 45
14 17 25 38 25 47 0 9 14 37 30 62 17 24 30 48 30 52 0 4 9 16 20 26 12 10 18
25 15 33 -3 8 12 40 33 71 21 31 44 76 51 101 7 25 30 66 51 92 25 32 40 62
45 93 4 30 22 68 51 111 30 43 47 80 51 110 3 25 12 48 20 51 23 9 93 186 93
235 0 21 9 38 30 56 17 15 30 36 30 50 0 13 5 32 11 43 13 25 -7 57 -25 39
-26 -26 -36 1 -12 33 13 16 20 17 82 6 38 -7 73 -16 78 -21 6 -4 17 -8 25 -8
8 0 33 -8 55 -19 23 -10 64 -26 91 -36 28 -10 70 -28 95 -40 30 -15 56 -21 80
-18 43 6 100 31 100 43 0 6 5 10 10 10 15 0 12 -29 -4 -46 -8 -8 -26 -14 -40
-14 -15 0 -26 -6 -26 -13 0 -8 -11 -34 -25 -58 -13 -24 -35 -67 -49 -95 -13
-28 -41 -70 -62 -94 -31 -34 -43 -41 -64 -36 -22 4 -35 -3 -69 -40 -24 -24
-49 -44 -57 -44 -15 0 -70 -70 -85 -107 -5 -13 -13 -23 -19 -23 -6 0 -20 -19
-31 -42 -11 -24 -35 -65 -54 -93 -19 -27 -35 -59 -35 -70 0 -21 -50 -107 -68
-119 -6 -4 -14 -27 -18 -52 -4 -28 -14 -50 -25 -57 -11 -7 -19 -18 -19 -25 0
-18 -79 -180 -91 -188 -5 -3 -9 -14 -9 -25 0 -18 -8 -37 -32 -79 -4 -8 -14
-26 -20 -40 -7 -14 -24 -43 -37 -65 -14 -22 -37 -65 -52 -96 -14 -30 -41 -71
-58 -91 -17 -20 -31 -47 -31 -60 0 -26 -37 -104 -83 -175 -15 -24 -27 -47 -27
-52 0 -6 -9 -15 -20 -21 -11 -6 -20 -21 -20 -33 0 -12 -7 -33 -15 -47 -7 -14
-21 -40 -29 -58 -9 -18 -29 -50 -46 -70 -17 -21 -30 -48 -30 -64 0 -14 -11
-39 -24 -55 -14 -16 -28 -41 -31 -56 -8 -32 -30 -76 -69 -137 -16 -24 -40 -69
-53 -100 -14 -30 -31 -59 -39 -63 -8 -4 -14 -18 -14 -31 0 -13 -7 -29 -15 -36
-8 -7 -15 -20 -15 -29 0 -9 -9 -29 -20 -46 -11 -16 -20 -40 -20 -51 0 -12 -13
-38 -30 -59 -16 -21 -30 -43 -30 -50 0 -7 -13 -30 -28 -51 -51 -71 -103 -202
-103 -259 0 -11 -7 -27 -16 -37 -15 -17 -14 -18 15 -18 25 0 29 3 25 20 -4 14
3 22 27 32 27 11 33 19 36 52 2 21 10 46 17 55 8 9 23 32 32 51 10 19 40 68
66 109 27 41 49 80 49 89 0 14 35 87 78 164 24 41 177 335 218 418 15 30 31
62 35 70 4 8 29 56 55 105 75 143 99 188 126 226 14 21 30 52 37 70 33 87 47
117 74 159 16 25 45 78 63 119 19 41 45 84 59 97 18 16 25 34 25 59 0 20 10
52 23 73 26 41 83 143 135 242 18 36 49 92 67 125 19 33 52 96 75 140 23 44
58 112 79 150 42 79 32 75 172 62 58 -5 80 -3 95 7 31 23 9 30 -96 27 l-100
-2 0 29 c0 35 32 55 81 51 71 -4 88 1 120 36 31 34 52 65 64 95 4 8 11 22 16
30 5 8 12 22 15 30 14 32 77 157 100 195 13 22 24 46 24 53 0 7 14 43 31 80
70 149 88 188 93 202 3 8 10 22 15 30 26 46 41 80 41 94 0 9 4 16 9 16 5 0 14
12 20 28 6 15 15 35 21 45 23 40 31 53 40 72 6 11 19 34 30 50 10 17 58 107
106 200 47 94 101 197 120 230 18 33 36 67 40 75 3 8 8 20 10 25 2 6 13 24 24
40 11 17 24 40 29 52 5 11 15 24 20 28 6 3 11 27 11 53 -1 39 -7 54 -35 86
-32 35 -41 40 -112 52 -107 17 -210 42 -323 77 -19 6 -56 11 -81 13 -39 2 -51
-3 -81 -30z m91 -130 c6 -7 33 -21 59 -30 26 -10 70 -28 97 -41 28 -12 66 -26
85 -30 39 -8 90 -35 90 -47 0 -5 12 -13 26 -18 36 -14 25 -34 -22 -40 -39 -5
-39 -5 -39 -52 -1 -33 -8 -57 -27 -85 -15 -21 -33 -54 -41 -73 -28 -65 -37
-85 -56 -115 -11 -16 -38 -66 -61 -110 -23 -44 -57 -105 -75 -135 -18 -30 -56
-104 -85 -165 -130 -270 -136 -279 -176 -289 -23 -6 -25 -10 -19 -39 4 -18 14
-42 22 -55 30 -48 9 -52 -69 -14 -40 20 -82 39 -93 43 -11 5 -38 16 -60 25
-22 9 -58 20 -80 25 -150 31 -203 38 -228 33 -24 -5 -28 -3 -25 13 3 13 11 17
30 15 15 -1 29 2 33 8 3 5 21 10 39 10 40 0 56 15 56 55 0 17 9 46 20 65 11
19 34 67 52 105 18 39 60 126 94 195 34 69 64 136 67 150 4 14 29 64 57 110
28 46 53 96 57 110 10 41 94 197 122 227 15 15 42 47 60 71 31 40 32 44 17 61
-9 10 -13 21 -9 24 12 12 70 7 82 -7z m441 -181 c0 -8 -4 -15 -10 -15 -5 0
-10 7 -10 15 0 8 5 15 10 15 6 0 10 -7 10 -15z m-60 -130 c0 -8 -4 -15 -10
-15 -5 0 -10 7 -10 15 0 8 5 15 10 15 6 0 10 -7 10 -15z m-184 -352 c-11 -11
-17 4 -9 23 7 18 8 18 11 1 2 -10 1 -21 -2 -24z m-16 -27 c0 -8 -6 -21 -14
-28 -7 -8 -17 -24 -20 -36 -4 -12 -12 -22 -17 -22 -14 0 -11 26 6 40 8 7 15
20 15 30 0 9 3 20 7 23 11 12 23 8 23 -7z m-1020 -721 c0 -8 -4 -15 -10 -15
-5 0 -10 7 -10 15 0 8 5 15 10 15 6 0 10 -7 10 -15z"/>
<path d="M6130 4423 c0 -14 74 -73 104 -82 17 -5 51 -17 75 -26 24 -9 46 -13
49 -10 12 12 -62 75 -88 75 -15 0 -48 11 -74 25 -48 25 -66 30 -66 18z"/>
<path d="M6030 4220 c-12 -8 -11 -13 10 -27 40 -28 93 -53 112 -53 10 0 26 -9
35 -20 19 -22 38 -26 48 -10 3 6 -4 14 -17 19 -13 5 -39 23 -58 40 -19 17 -40
34 -45 39 -17 14 -70 21 -85 12z"/>
<path d="M6054 4065 c-13 -32 23 -48 47 -19 10 13 10 17 -2 25 -21 13 -39 11
-45 -6z"/>
<path d="M5887 3955 c-5 -11 2 -19 21 -27 41 -17 155 -69 175 -80 32 -16 34 2
4 25 -16 12 -44 36 -63 54 -41 38 -127 56 -137 28z"/>
<path d="M5945 3829 c-4 -6 -4 -13 -1 -17 9 -8 96 -41 96 -36 0 9 -66 63 -77
64 -6 0 -15 -5 -18 -11z"/>
<path d="M5923 3665 c-3 -9 -3 -18 -1 -21 9 -9 38 8 38 22 0 19 -29 18 -37 -1z"/>
<path d="M5925 3581 c-7 -13 17 -24 40 -19 9 1 16 8 16 13 0 14 -48 19 -56 6z"/>
<path d="M5700 3470 c0 -6 12 -16 28 -22 15 -6 45 -19 68 -30 50 -23 104 -24
104 -3 0 9 -8 18 -17 21 -10 3 -34 14 -54 25 -39 20 -129 26 -129 9z"/>
<path d="M3617 4653 c-18 -21 -68 -159 -59 -167 11 -11 19 -6 32 22 14 27 50
155 46 160 -2 1 -10 -6 -19 -15z"/>
<path d="M6835 4576 l-30 -14 31 -1 c19 -1 46 -13 69 -31 21 -17 50 -33 64
-36 14 -3 35 -9 46 -13 11 -5 38 -14 60 -21 65 -21 118 -59 110 -78 -13 -33
-10 -37 28 -34 27 3 45 -2 58 -14 17 -16 22 -16 30 -4 5 8 7 21 4 28 -3 8 -5
17 -5 22 0 5 -16 18 -35 30 -27 16 -39 19 -54 11 -17 -9 -20 -8 -23 12 -2 14
-11 23 -26 25 -12 2 -34 14 -47 26 -13 12 -41 30 -62 38 -21 8 -63 25 -93 38
-75 30 -90 32 -125 16z"/>
<path d="M4007 4383 c-4 -3 -7 -9 -7 -13 0 -12 129 -90 149 -90 37 0 23 27
-24 47 -25 10 -45 21 -45 25 0 7 -52 38 -63 38 -2 0 -7 -3 -10 -7z"/>
<path d="M8973 4348 c-4 -7 -10 -117 -13 -243 -3 -127 -9 -236 -13 -242 -5 -7
-12 -50 -17 -95 -4 -46 -13 -105 -20 -133 -6 -27 -18 -84 -26 -125 -8 -41 -20
-91 -26 -110 -7 -19 -15 -53 -19 -75 -4 -22 -12 -55 -18 -72 -6 -18 -16 -48
-22 -65 -6 -18 -14 -46 -16 -63 -3 -16 -10 -35 -15 -42 -6 -7 -14 -27 -18 -45
-11 -45 -30 -98 -46 -130 -8 -14 -14 -33 -14 -41 0 -9 -6 -28 -14 -44 -8 -15
-21 -44 -29 -63 -35 -82 -50 -113 -127 -270 -94 -189 -85 -172 -170 -313 -36
-60 -70 -116 -75 -125 -53 -89 -253 -358 -339 -457 -34 -38 -72 -83 -86 -100
-40 -48 -329 -336 -395 -393 -151 -130 -182 -155 -207 -168 -16 -8 -28 -18
-28 -23 0 -5 -26 -26 -57 -47 -32 -21 -83 -57 -113 -79 -30 -23 -82 -58 -115
-79 -33 -20 -69 -42 -80 -49 -35 -22 -100 -61 -117 -72 -95 -56 -455 -235
-473 -235 -4 0 -21 -6 -38 -14 -36 -15 -103 -41 -162 -63 -22 -8 -53 -21 -68
-29 -16 -8 -36 -14 -45 -14 -9 0 -30 -7 -46 -15 -15 -8 -34 -15 -41 -15 -8 0
-26 -5 -42 -12 -71 -29 -305 -89 -428 -109 -33 -5 -73 -13 -90 -18 -16 -5 -64
-12 -106 -15 -42 -3 -89 -10 -103 -16 -16 -6 -121 -10 -244 -10 -123 0 -224
-5 -232 -10 -10 -6 152 -10 466 -10 419 0 483 2 488 15 3 9 19 15 41 15 22 0
38 6 41 15 4 9 19 15 39 15 18 0 46 7 61 15 16 8 36 15 45 15 16 0 63 17 126
46 17 8 40 14 51 14 12 0 23 4 26 9 4 5 25 12 49 16 23 4 71 20 106 36 35 16
72 29 82 29 11 0 28 9 39 20 11 11 32 22 47 26 16 3 37 12 48 18 11 7 40 18
65 25 25 7 59 21 76 32 17 10 37 19 43 19 7 0 24 8 39 19 26 17 228 133 302
172 19 11 50 31 70 47 19 15 48 34 64 42 16 8 41 27 56 41 14 15 44 36 66 47
21 11 64 42 94 69 30 27 62 52 70 55 13 6 158 125 230 190 14 13 44 36 66 51
86 58 369 366 542 590 258 334 521 813 657 1197 12 36 28 81 35 100 32 90 40
112 69 210 42 137 48 150 66 150 13 0 15 59 15 494 0 295 -4 497 -9 501 -5 3
-13 0 -18 -7z"/>
<path d="M7351 4250 c17 -27 35 -50 41 -50 18 0 -1 64 -25 82 -41 32 -48 19
-16 -32z"/>
<path d="M6881 4249 c-23 -16 -46 -40 -50 -52 -5 -12 -19 -31 -31 -42 -12 -11
-33 -42 -46 -70 -14 -27 -28 -57 -33 -65 -11 -20 -35 -77 -51 -120 -25 -68
-49 -323 -31 -334 17 -11 27 28 41 149 10 100 27 175 50 230 38 88 54 121 60
125 4 3 15 22 25 43 10 21 36 57 59 81 59 61 68 73 58 80 -5 3 -28 -8 -51 -25z"/>
<path d="M8267 4173 c-9 -9 -38 -18 -69 -20 -71 -6 -98 -12 -98 -22 0 -11 164
-1 168 10 2 5 10 9 18 9 15 0 19 25 6 34 -5 3 -16 -2 -25 -11z"/>
<path d="M7396 4161 c-19 -21 -14 -43 8 -35 13 5 46 -74 46 -113 0 -10 7 -38
16 -63 9 -25 17 -81 18 -125 1 -64 4 -80 16 -80 9 0 14 7 12 18 -2 11 3 26 11
35 28 33 29 71 2 152 -14 43 -33 84 -40 90 -9 7 -13 21 -9 34 3 14 -3 32 -15
48 -12 14 -21 33 -21 42 0 22 -23 20 -44 -3z"/>
<path d="M7946 4153 c-3 -4 -59 -8 -124 -9 -129 -2 -214 -14 -210 -29 2 -5 12
-9 23 -8 11 1 79 5 150 8 263 11 288 14 255 35 -17 11 -83 13 -94 3z"/>
<path d="M8667 4143 c18 -2 50 -2 70 0 21 2 7 4 -32 4 -38 0 -55 -2 -38 -4z"/>
<path d="M3005 4015 c4 -16 12 -48 18 -70 6 -22 11 -77 11 -122 0 -60 3 -84
13 -87 18 -7 33 34 33 93 0 61 -32 164 -61 193 l-22 23 8 -30z"/>
<path d="M7022 3955 c-7 -24 -8 -43 -2 -49 11 -11 23 32 18 65 -3 20 -6 18
-16 -16z"/>
<path d="M7315 3932 c-4 -18 -12 -35 -16 -38 -5 -3 -9 -18 -9 -35 0 -16 -4
-29 -10 -29 -8 0 -41 -62 -64 -120 -3 -8 -15 -30 -26 -48 -11 -18 -32 -60 -46
-94 -14 -33 -36 -78 -50 -99 -13 -21 -24 -50 -24 -64 0 -14 -4 -25 -9 -25 -6
0 -28 -36 -50 -80 -22 -44 -51 -94 -64 -112 -13 -18 -35 -55 -48 -81 -13 -27
-31 -53 -40 -58 -9 -5 -28 -28 -42 -51 -14 -24 -37 -53 -51 -65 -24 -21 -34
-43 -20 -43 19 0 234 254 234 276 0 4 18 35 40 70 22 35 49 86 60 113 10 27
33 71 49 99 17 27 31 54 31 59 0 6 27 64 60 131 33 66 60 126 60 134 0 14 27
100 42 134 6 12 8 30 5 40 -3 14 -6 11 -12 -14z"/>
<path d="M2231 3941 c-17 -11 -10 -46 9 -46 17 0 26 33 13 46 -4 4 -14 4 -22
0z"/>
<path d="M2167 3814 c-4 -4 -7 -20 -7 -36 l0 -28 21 21 c18 18 19 23 7 35 -8
8 -17 11 -21 8z"/>
<path d="M6836 3708 c-6 -21 -27 -140 -33 -185 -6 -54 8 -55 31 -2 22 49 35
199 17 199 -6 0 -13 -6 -15 -12z"/>
<path d="M7542 3671 c4 -13 18 -16 19 -4 0 4 -5 9 -11 12 -7 2 -11 -2 -8 -8z"/>
<path d="M6961 3647 c0 -11 -10 -30 -21 -44 -11 -14 -20 -31 -20 -38 0 -6 -11
-32 -25 -56 -13 -24 -29 -55 -35 -68 -6 -13 -24 -44 -40 -68 -17 -23 -43 -63
-60 -87 -16 -24 -30 -51 -30 -60 0 -9 -6 -16 -14 -16 -9 0 -16 -16 -20 -47
-17 -136 -18 -163 -8 -163 17 0 55 91 53 125 -2 29 27 95 68 153 80 114 141
231 141 268 0 14 5 34 11 45 5 11 8 32 6 47 -2 15 -5 19 -6 9z"/>
<path d="M7538 3587 c-9 -23 -21 -60 -27 -83 -12 -47 -69 -158 -112 -222 -16
-23 -29 -49 -29 -56 0 -8 -7 -19 -15 -26 -8 -7 -15 -18 -15 -26 0 -7 -13 -29
-30 -47 -16 -19 -30 -43 -30 -52 0 -10 -13 -31 -30 -47 -16 -15 -30 -38 -30
-51 1 -21 2 -20 28 9 15 17 34 41 42 53 8 13 23 33 32 44 29 36 32 41 53 72
26 40 43 67 52 85 4 8 22 34 40 58 18 24 33 48 33 53 0 19 43 67 55 63 14 -6
21 201 7 210 -5 3 -16 -13 -24 -37z"/>
<path d="M2300 3585 c0 -24 17 -69 52 -133 63 -119 74 -139 98 -177 11 -16 23
-37 27 -45 7 -13 42 -72 88 -148 38 -63 161 -249 209 -316 30 -42 67 -86 94
-110 12 -11 38 -48 57 -83 34 -61 43 -87 81 -223 10 -36 30 -87 45 -115 28
-54 46 -135 29 -135 -14 0 -61 68 -128 185 -13 22 -34 51 -47 65 -14 15 -25
30 -25 34 0 5 -21 41 -47 80 -27 39 -50 76 -53 81 -3 6 -41 63 -85 129 -44 65
-102 154 -130 196 -27 43 -77 117 -110 165 -33 48 -71 110 -86 136 -30 58 -59
92 -59 69 0 -21 98 -210 138 -267 11 -15 31 -51 45 -79 14 -28 59 -101 99
-162 40 -61 107 -164 148 -228 41 -65 131 -192 199 -283 l125 -166 2 -90 c2
-49 10 -115 19 -145 38 -132 52 -279 31 -330 -10 -26 -12 -48 -5 -80 4 -25 8
-72 9 -104 0 -59 8 -96 37 -167 21 -52 15 -85 -17 -81 -135 14 -177 14 -244
-1 -96 -22 -246 -46 -328 -53 -38 -3 -68 -10 -68 -15 0 -12 296 -12 340 1 47
13 182 24 212 17 28 -7 53 -63 37 -83 -6 -7 -8 -18 -4 -24 10 -16 55 28 55 52
0 10 11 23 24 29 22 10 55 65 70 115 3 11 -1 42 -10 70 -8 27 -19 103 -24 169
-4 66 -13 149 -18 185 -14 83 -35 361 -38 510 -3 115 -20 220 -36 220 -12 0
-58 104 -58 132 0 13 -5 29 -11 35 -6 6 -14 35 -19 64 -5 30 -19 88 -30 129
-12 41 -24 87 -27 103 -7 36 -16 34 -31 -5 -6 -17 -13 -30 -16 -27 -124 135
-343 437 -345 477 -1 7 -11 28 -24 45 -13 18 -52 82 -87 142 -35 61 -70 121
-79 135 -25 40 -60 114 -61 128 0 6 -4 12 -10 12 -5 0 -10 -16 -10 -35z"/>
<path d="M2107 3563 c-12 -12 -7 -33 8 -33 17 0 19 9 7 28 -5 7 -11 9 -15 5z"/>
<path d="M2100 3476 c0 -27 17 -43 31 -29 12 12 -1 53 -17 53 -8 0 -14 -10
-14 -24z"/>
<path d="M2512 3453 c5 -25 28 -28 28 -4 0 12 -6 21 -16 21 -9 0 -14 -7 -12
-17z"/>
<path d="M4917 3413 c-4 -3 -7 -20 -7 -37 1 -29 1 -30 15 -12 24 31 16 74 -8
49z"/>
<path d="M2540 3396 c0 -8 8 -22 18 -32 9 -9 37 -46 62 -82 25 -36 51 -68 58
-70 18 -6 -32 85 -65 118 -14 13 -31 37 -39 52 -15 30 -34 37 -34 14z"/>
<path d="M2823 3345 c5 -36 29 -134 70 -280 8 -28 24 -72 35 -99 30 -67 27
-97 -6 -64 -15 15 -17 -3 -3 -30 5 -9 16 -34 25 -54 16 -40 36 -50 37 -20 5
149 1 177 -38 253 -21 40 -43 101 -50 134 -23 121 -30 143 -53 171 l-22 29 5
-40z"/>
<path d="M7546 3307 c-7 -61 -2 -97 14 -97 4 0 10 10 14 23 12 47 3 137 -14
137 -4 0 -11 -28 -14 -63z"/>
<path d="M2046 3303 c-2 -10 -5 -63 -6 -118 0 -55 -1 -111 -3 -124 -2 -21 4
-26 31 -32 42 -8 48 4 31 62 -6 24 -13 85 -15 134 -2 70 -6 91 -17 93 -9 2
-18 -5 -21 -15z"/>
<path d="M7202 3277 c-19 -23 -64 -82 -100 -132 -76 -104 -190 -221 -312 -319
-47 -38 -121 -102 -165 -143 -51 -47 -85 -73 -96 -70 -11 3 -26 -7 -41 -27
-18 -24 -23 -43 -23 -88 1 -31 4 -60 8 -64 8 -8 57 34 57 48 0 5 10 30 21 56
27 59 122 151 236 228 48 33 124 94 170 138 79 74 213 226 213 241 0 3 11 21
24 38 13 18 27 42 31 55 3 12 11 22 16 22 5 0 9 14 9 30 0 17 -3 30 -7 29 -5
0 -23 -19 -41 -42z"/>
<path d="M2690 3193 c0 -5 4 -15 10 -23 11 -18 25 -7 17 15 -6 15 -27 21 -27
8z"/>
<path d="M2961 3186 c-10 -12 -10 -23 -1 -50 22 -69 59 -56 44 15 -10 46 -24
58 -43 35z"/>
<path d="M5840 3145 c0 -14 5 -25 10 -25 6 0 10 11 10 25 0 14 -4 25 -10 25
-5 0 -10 -11 -10 -25z"/>
<path d="M6325 3163 c-16 -3 -44 -18 -63 -34 -18 -16 -39 -29 -47 -29 -8 0
-15 -9 -15 -20 0 -26 18 -25 71 4 35 20 61 25 127 27 81 3 84 2 107 -27 13
-16 31 -43 40 -61 20 -40 20 -164 0 -229 -17 -56 -20 -137 -5 -132 14 4 100
132 93 138 -3 3 -8 -1 -10 -7 -6 -16 -23 -17 -23 -3 0 6 9 20 20 32 21 22 28
78 10 78 -5 0 -10 19 -10 43 -1 57 -28 115 -84 172 l-45 48 -55 -7 c-33 -3
-57 -2 -61 4 -3 5 -9 9 -13 9 -4 -1 -20 -4 -37 -6z"/>
<path d="M7557 3133 c-17 -4 -17 -13 -10 -101 10 -120 7 -180 -8 -198 -8 -10
-9 -18 -2 -25 7 -7 7 -19 0 -38 -9 -24 -6 -39 17 -93 35 -81 34 -145 -1 -140
-24 3 -31 -12 -12 -24 8 -5 10 -29 6 -76 -5 -57 -2 -82 18 -141 14 -40 25 -74
25 -76 0 -2 7 2 15 9 17 14 21 106 5 159 -5 18 -9 128 -8 245 1 409 -3 508
-20 505 -4 -1 -15 -3 -25 -6z"/>
<path d="M3170 3104 c0 -14 4 -23 10 -19 6 3 10 15 10 26 0 10 -4 19 -10 19
-5 0 -10 -12 -10 -26z"/>
<path d="M3473 3113 c-41 -5 -45 -18 -41 -143 3 -80 6 -95 20 -98 14 -3 17 6
20 45 l3 48 55 7 c42 6 60 14 77 35 12 15 20 30 17 35 -9 13 -51 9 -64 -7 -7
-8 -21 -15 -31 -15 -10 0 -21 -4 -24 -10 -17 -27 -42 13 -30 49 4 13 19 20 57
24 57 7 69 14 48 27 -15 10 -46 10 -107 3z"/>
<path d="M3793 3083 c-16 -6 -17 -29 -2 -39 12 -7 29 12 29 34 0 13 -6 14 -27
5z"/>
<path d="M4293 3046 c10 -65 47 -87 47 -28 -1 17 -10 34 -27 46 l-26 19 6 -37z"/>
<path d="M4154 3045 c-7 -17 4 -37 17 -30 12 8 12 45 -1 45 -6 0 -13 -7 -16
-15z"/>
<path d="M6135 3024 c-29 -26 -29 -26 -5 -20 14 3 30 6 37 6 7 0 17 9 23 20
16 30 -17 26 -55 -6z"/>
<path d="M3880 2994 c0 -35 3 -45 11 -37 15 15 17 75 2 80 -9 3 -13 -9 -13
-43z"/>
<path d="M3677 3003 c-4 -3 -7 -19 -7 -35 0 -24 4 -28 30 -28 28 0 30 3 30 35
0 30 -3 35 -23 35 -13 0 -27 -3 -30 -7z"/>
<path d="M2842 2979 c2 -7 10 -15 17 -17 8 -3 12 1 9 9 -2 7 -10 15 -17 17 -8
3 -12 -1 -9 -9z"/>
<path d="M4383 2969 c-50 -19 -10 -69 54 -69 24 0 46 6 53 15 16 19 30 19 30
1 0 -26 41 -31 59 -7 15 19 18 20 38 6 13 -9 42 -14 79 -14 38 1 73 -5 97 -17
37 -18 40 -18 69 -1 29 17 30 16 48 -5 l18 -23 30 22 c22 16 32 19 41 10 6 -6
37 -12 70 -14 62 -4 89 11 77 43 -5 13 -15 15 -44 10 -21 -3 -83 1 -137 9 -98
15 -100 15 -115 -6 -16 -20 -16 -20 -29 8 -12 25 -14 26 -25 10 -16 -20 -36
-22 -36 -3 0 23 -30 27 -67 9 -33 -15 -36 -15 -45 0 -10 19 -40 22 -69 6 -13
-7 -30 -7 -52 -1 -50 16 -120 21 -144 11z"/>
<path d="M2120 2950 c0 -11 7 -20 15 -20 17 0 18 2 9 24 -9 23 -24 20 -24 -4z"/>
<path d="M2014 2913 c4 -21 11 -66 16 -101 8 -65 22 -92 46 -92 18 0 18 4 -6
75 -11 33 -25 81 -32 108 -15 56 -34 64 -24 10z"/>
<path d="M4200 2904 c0 -12 6 -15 23 -10 12 3 25 6 30 6 4 0 7 5 7 10 0 6 -13
10 -30 10 -21 0 -30 -5 -30 -16z"/>
<path d="M2150 2890 c0 -26 24 -74 61 -121 16 -20 29 -44 29 -52 0 -8 12 -26
28 -39 15 -13 44 -49 65 -79 20 -31 48 -66 62 -79 14 -13 25 -28 25 -33 0 -6
17 -26 38 -46 20 -20 62 -65 92 -100 30 -35 76 -85 101 -110 71 -72 170 -202
244 -319 28 -45 61 -102 83 -142 48 -88 52 -95 52 -105 0 -5 10 -21 21 -35
l20 -25 -4 30 c-3 17 -19 64 -37 105 -42 99 -46 107 -78 162 -15 26 -40 70
-56 98 -16 27 -32 50 -36 50 -4 0 -22 21 -40 48 -39 55 -32 46 -159 188 -54
62 -121 134 -147 161 -76 75 -186 201 -221 252 -36 53 -105 168 -115 194 -10
23 -28 22 -28 -3z"/>
<path d="M3615 2862 c-9 -6 -15 -102 -7 -102 20 0 72 36 72 50 0 26 -48 64
-65 52z"/>
<path d="M3705 2862 c-6 -4 -10 -25 -10 -47 0 -43 22 -58 50 -35 11 9 19 9 28
2 36 -30 88 27 61 67 -18 24 -64 29 -64 6 0 -8 5 -15 10 -15 6 0 10 -7 10 -15
0 -22 -8 -19 -37 15 -26 32 -32 34 -48 22z"/>
<path d="M3860 2855 c0 -8 5 -15 10 -15 6 0 10 -7 10 -15 0 -8 -4 -15 -10 -15
-13 0 -13 -27 0 -35 17 -11 51 6 59 28 11 30 -14 67 -45 67 -15 0 -24 -6 -24
-15z"/>
<path d="M3954 2858 c-4 -6 -2 -14 4 -16 15 -5 16 -32 2 -32 -13 0 -13 -27 0
-35 19 -12 48 6 55 33 5 20 2 31 -15 44 -26 21 -36 22 -46 6z"/>
<path d="M3537 2843 c-10 -9 -9 -93 1 -93 17 1 53 41 50 56 -4 20 -42 47 -51
37z"/>
<path d="M3442 2790 c-1 -53 8 -61 41 -36 23 18 22 63 -2 76 -33 17 -39 12
-39 -40z"/>
<path d="M6047 2756 c-9 -7 -42 -21 -72 -31 -41 -13 -55 -22 -55 -36 0 -14 7
-19 30 -19 24 0 30 4 30 21 0 20 4 21 45 16 37 -4 47 -1 55 13 10 18 4 50 -9
50 -3 0 -14 -7 -24 -14z"/>
<path d="M1975 2717 c-4 -16 -5 -51 -2 -80 3 -29 1 -75 -4 -104 -13 -69 0
-147 25 -151 16 -4 18 0 12 33 -5 23 -3 42 5 51 7 9 9 37 5 86 -3 40 -8 91 -9
114 -2 22 -9 49 -15 59 -10 18 -11 18 -17 -8z"/>
<path d="M2090 2677 c0 -19 31 -110 43 -124 15 -20 28 -4 21 25 -17 70 -64
143 -64 99z"/>
<path d="M4315 2669 c-6 -8 -18 -18 -27 -22 -24 -8 -23 -27 1 -27 24 0 44 24
39 47 -3 16 -5 16 -13 2z"/>
<path d="M7438 2605 c-13 -28 -12 -30 18 -39 25 -7 38 15 29 45 -9 27 -33 23
-47 -6z"/>
<path d="M8092 2614 c4 -21 22 -23 26 -1 2 10 -3 17 -13 17 -10 0 -15 -6 -13
-16z"/>
<path d="M6429 2377 c-44 -36 -69 -87 -69 -141 l0 -49 38 49 c48 62 77 127 66
147 -8 13 -13 12 -35 -6z"/>
<path d="M1970 2270 c0 -11 7 -20 15 -20 8 0 15 9 15 20 0 11 -7 20 -15 20 -8
0 -15 -9 -15 -20z"/>
<path d="M7549 2172 l-32 -28 23 -68 c40 -116 80 -107 80 19 0 65 -11 105 -30
105 -5 0 -24 -13 -41 -28z"/>
<path d="M1967 2173 c-4 -3 -7 -17 -7 -30 0 -35 34 -26 38 10 3 26 -14 37 -31
20z"/>
<path d="M6277 2095 c-27 -31 -45 -59 -42 -67 3 -8 21 -22 40 -31 23 -11 35
-25 40 -46 8 -36 24 -49 36 -30 19 30 6 229 -15 228 -6 0 -32 -24 -59 -54z"/>
<path d="M6140 2055 c0 -8 5 -15 10 -15 6 0 10 7 10 15 0 8 -4 15 -10 15 -5 0
-10 -7 -10 -15z"/>
<path d="M1927 1933 c-11 -10 -8 -53 3 -53 6 0 10 14 10 30 0 31 -2 35 -13 23z"/>
<path d="M5304 1895 c-9 -21 2 -32 53 -55 30 -13 67 -20 108 -20 79 0 92 -5
111 -42 10 -19 34 -38 67 -54 58 -27 135 -30 362 -14 300 23 282 23 305 0 11
-11 20 -28 21 -37 2 -34 -3 -68 -13 -87 -7 -13 -6 -29 5 -55 9 -20 18 -49 22
-64 5 -24 8 -27 20 -17 8 7 15 19 15 27 0 8 13 32 29 52 15 20 36 51 45 69 22
43 11 58 -50 65 -25 2 -48 7 -51 11 -4 3 -1 33 5 66 8 42 8 69 0 90 -12 35
-21 37 -39 10 -12 -18 -31 -22 -134 -31 -246 -21 -394 -40 -433 -54 -8 -3 -31
-2 -53 1 -33 6 -43 13 -59 43 -33 64 -70 79 -194 83 -74 3 -111 8 -114 16 -5
17 -21 15 -28 -3z"/>
<path d="M6741 1836 c-9 -11 -5 -15 20 -20 40 -8 50 1 25 20 -25 17 -31 18
-45 0z"/>
<path d="M6930 1840 c0 -5 9 -10 21 -10 11 0 17 5 14 10 -3 6 -13 10 -21 10
-8 0 -14 -4 -14 -10z"/>
<path d="M7063 1843 c-47 -5 -57 -19 -20 -29 29 -7 87 7 88 21 0 12 -11 13
-68 8z"/>
<path d="M7540 1831 c-25 -14 -40 -16 -56 -9 -16 7 -30 6 -54 -7 -21 -11 -41
-14 -59 -9 -37 10 -84 5 -101 -12 -13 -13 -13 -16 0 -24 31 -19 99 -22 166 -7
48 11 73 13 87 6 10 -6 25 -8 33 -5 30 11 12 -32 -36 -89 -27 -32 -52 -67 -55
-76 -6 -19 19 -89 32 -89 10 0 53 92 53 114 0 9 4 24 9 34 10 18 42 90 60 135
6 15 11 34 11 42 0 21 -47 18 -90 -4z"/>
<path d="M1920 1810 c0 -16 5 -30 10 -30 6 0 10 14 10 30 0 17 -4 30 -10 30
-5 0 -10 -13 -10 -30z"/>
<path d="M7785 1795 c-22 -8 -57 -14 -77 -14 -21 -1 -38 -6 -38 -12 0 -7 32
-9 98 -6 117 6 162 15 162 33 0 18 -89 17 -145 -1z"/>
<path d="M1337 1664 c-16 -16 -5 -24 32 -24 22 0 43 5 46 10 3 6 -2 10 -12 10
-10 0 -27 3 -38 6 -11 3 -24 2 -28 -2z"/>
<path d="M6536 1633 c-11 -11 -6 -23 9 -23 8 0 15 4 15 9 0 13 -16 22 -24 14z"/>
<path d="M1917 1590 c-3 -13 -2 -31 3 -39 8 -15 9 -15 15 0 3 8 2 26 -3 39
l-9 24 -6 -24z"/>
<path d="M5370 1542 c0 -28 79 -46 215 -48 75 -1 146 4 190 13 39 8 80 17 93
19 12 2 22 9 22 14 0 13 -123 13 -136 0 -7 -7 -27 -7 -60 -1 -67 13 -184 20
-184 11 0 -8 -109 -4 -118 4 -11 12 -22 6 -22 -12z"/>
<path d="M6142 1508 c5 -15 28 -18 29 -3 0 6 -7 12 -17 13 -10 3 -15 -1 -12
-10z"/>
<path d="M7291 1496 c-9 -10 2 -25 51 -67 34 -30 84 -75 111 -101 53 -53 58
-55 81 -32 27 26 20 79 -16 119 -66 76 -194 121 -227 81z"/>
<path d="M2620 1481 c0 -5 13 -19 29 -30 30 -22 71 -28 71 -11 0 6 -13 10 -30
10 -19 0 -33 7 -40 20 -11 21 -30 27 -30 11z"/>
<path d="M1920 1400 c0 -30 13 -40 25 -20 8 13 -4 50 -16 50 -5 0 -9 -13 -9
-30z"/>
<path d="M6487 1378 c-9 -6 -9 -12 1 -29 12 -18 11 -23 -5 -34 -17 -13 -17
-14 0 -21 10 -3 53 -1 95 7 47 8 166 13 307 13 215 1 234 0 287 -21 32 -13 66
-27 75 -32 10 -5 41 -20 68 -32 28 -12 62 -31 77 -41 44 -30 74 -21 46 14 -14
16 -113 78 -126 78 -4 0 -23 8 -42 18 -19 10 -62 26 -95 36 -33 10 -73 22 -90
28 -16 5 -127 12 -245 14 -118 2 -243 6 -278 7 -34 2 -68 0 -75 -5z"/>
<path d="M6353 1355 c-18 -8 -33 -19 -33 -25 0 -58 -167 -266 -237 -295 -34
-14 -133 -94 -133 -107 0 -17 49 -6 110 24 62 31 127 93 217 206 34 44 44 28
37 -58 -8 -100 -11 -106 -59 -137 -24 -15 -44 -31 -45 -34 -1 -16 33 -17 55
-3 13 9 29 13 35 9 12 -7 14 -52 2 -59 -13 -7 -2 -74 14 -87 11 -9 18 -8 32 4
9 8 45 19 79 23 35 3 68 13 75 21 10 13 1 15 -73 13 -105 -2 -109 -2 -109 10
0 10 59 70 69 70 176 1 646 22 660 30 22 12 -119 20 -364 23 -179 1 -226 -1
-255 -14 -60 -26 -86 -7 -59 44 9 16 9 22 0 25 -18 6 -14 119 4 126 27 10 15
26 -20 26 -19 0 -35 5 -35 11 0 22 53 79 85 90 31 11 44 32 45 67 0 16 -56 15
-97 -3z"/>
<path d="M5941 1331 c-17 -11 -4 -33 17 -29 10 2 22 -3 28 -11 12 -15 44 -9
44 9 0 5 -16 17 -36 25 -43 18 -36 17 -53 6z"/>
<path d="M5719 1276 c-69 -14 -109 -38 -92 -57 9 -9 16 -9 26 -1 12 11 81 19
197 26 36 2 45 6 45 20 0 16 -9 19 -60 21 -33 1 -85 -3 -116 -9z"/>
<path d="M2200 1255 c-13 -14 -18 -25 -12 -25 6 0 14 5 17 10 3 6 14 10 24 10
9 0 26 7 37 15 18 14 17 14 -12 15 -20 0 -39 -9 -54 -25z"/>
<path d="M6860 1260 c-30 -5 -93 -9 -140 -9 -47 -1 -105 -6 -130 -12 -25 -6
-72 -14 -105 -20 -32 -5 -64 -14 -69 -19 -16 -16 95 -12 128 5 41 21 470 22
536 1 111 -37 152 -46 196 -46 37 0 45 3 36 12 -24 24 -152 63 -277 84 -88 14
-96 15 -175 4z"/>
<path d="M5130 1240 c-27 -4 -30 -7 -15 -11 23 -6 75 4 60 12 -6 3 -26 3 -45
-1z"/>
<path d="M2115 1179 c-8 -25 6 -42 28 -34 18 7 30 32 21 46 -10 17 -43 9 -49
-12z"/>
<path d="M2737 1165 c-43 -7 -86 -16 -95 -20 -9 -4 -33 -11 -52 -15 -19 -5
-116 -29 -215 -55 -229 -59 -291 -73 -390 -86 -88 -11 -105 -20 -105 -56 0
-34 27 -40 58 -11 21 19 40 25 87 27 33 2 78 9 100 17 22 7 50 14 62 14 12 0
37 6 55 14 31 13 63 20 223 46 62 11 122 27 242 66 39 13 82 24 95 24 13 0 29
4 37 9 12 8 12 12 2 25 -8 9 -16 16 -20 15 -3 -1 -41 -7 -84 -14z"/>
<path d="M1965 1155 c-22 -7 -52 -16 -66 -19 -28 -6 -52 -46 -43 -71 4 -9 14
-14 23 -11 9 2 41 10 71 16 68 16 74 19 61 34 -15 18 -3 26 40 26 34 0 57 19
42 34 -11 10 -86 5 -128 -9z"/>
<path d="M6670 1080 c-25 -4 -81 -12 -125 -16 -75 -7 -65 -9 150 -22 127 -7
261 -15 299 -18 41 -4 78 -1 90 5 12 6 58 12 104 13 83 3 105 16 54 31 -38 12
-517 18 -572 7z m420 -25 c0 -16 -52 -21 -84 -9 -32 12 -15 24 34 24 38 0 50
-4 50 -15z"/>
<path d="M3896 1062 c-8 -13 3 -130 13 -137 4 -2 8 21 8 52 2 61 -9 104 -21
85z"/>
<path d="M3266 1008 c-4 -20 -13 -50 -22 -66 -19 -39 -24 -156 -7 -173 10 -10
16 -9 27 6 11 16 16 17 29 6 12 -9 21 -10 37 -1 18 9 20 17 14 43 -8 41 -22
67 -34 67 -6 0 -9 12 -8 28 3 51 -2 88 -16 107 -12 17 -14 16 -20 -17z"/>
<path d="M2360 970 l-35 -6 28 -8 c32 -10 117 1 117 15 0 10 -57 10 -110 -1z"/>
<path d="M3917 883 c-7 -35 3 -132 14 -139 10 -6 11 10 12 94 0 60 -17 91 -26
45z"/>
<path d="M6780 865 c-121 -16 -150 -24 -175 -45 -11 -10 -30 -21 -42 -25 -14
-4 -23 -14 -23 -26 0 -17 8 -19 87 -19 88 0 108 16 28 22 -54 4 -51 22 5 28
25 3 55 11 67 18 33 18 133 16 133 -3 0 -10 -10 -15 -27 -15 -40 0 -74 -11
-67 -21 8 -14 56 -10 88 6 15 8 35 15 42 15 21 0 17 18 -7 31 -28 14 -14 27
42 38 l44 9 -50 0 c-27 0 -93 -6 -145 -13z"/>
<path d="M2400 850 c-12 -8 -9 -10 13 -10 15 0 27 5 27 10 0 13 -20 13 -40 0z"/>
<path d="M5435 853 c-48 -10 -46 -17 5 -23 47 -6 84 1 69 13 -9 8 -55 14 -74
10z"/>
<path d="M2326 843 c-4 -4 -39 -8 -78 -9 -97 -2 -117 -24 -21 -24 62 0 143 20
143 35 0 8 -36 6 -44 -2z"/>
<path d="M5337 844 c-14 -14 -7 -35 11 -32 9 2 17 10 17 17 0 16 -18 25 -28
15z"/>
<path d="M5270 815 c0 -8 5 -15 10 -15 6 0 10 7 10 15 0 8 -4 15 -10 15 -5 0
-10 -7 -10 -15z"/>
<path d="M2100 790 c0 -5 9 -10 19 -10 11 0 23 5 26 10 4 6 -5 10 -19 10 -14
0 -26 -4 -26 -10z"/>
<path d="M4863 789 c-25 -9 -30 -24 -10 -31 6 -3 57 -4 112 -3 93 2 166 17
151 32 -9 10 -228 12 -253 2z"/>
<path d="M6421 746 c-18 -10 -30 -11 -42 -3 -23 14 -47 3 -51 -24 -4 -27 -17
-34 -94 -48 -75 -14 -151 -14 -159 -1 -4 6 -15 4 -30 -6 -15 -10 -34 -14 -49
-10 -14 3 -28 2 -31 -4 -3 -5 -19 -10 -36 -10 -36 0 -37 -8 -3 -37 21 -17 31
-20 51 -12 13 5 38 9 54 9 17 0 39 5 50 10 13 8 25 7 42 -1 13 -8 53 -12 99
-10 73 2 79 1 103 -25 26 -28 35 -96 15 -109 -5 -3 -10 -16 -9 -28 0 -15 2
-17 6 -7 4 8 13 20 21 26 9 7 16 31 18 61 1 28 7 60 13 71 15 28 14 32 -8 32
-36 0 -36 38 -1 70 26 25 41 30 80 30 50 0 86 22 54 34 -26 10 -67 6 -93 -8z"/>
<path d="M2555 725 c-27 -8 -83 -15 -122 -15 -45 0 -73 -4 -73 -11 0 -7 36 -8
113 -5 300 16 340 17 356 10 13 -5 11 -8 -9 -14 -14 -5 -42 -8 -62 -9 -20 -1
-63 -8 -95 -16 -31 -8 -75 -15 -98 -16 -54 -1 -167 -31 -173 -47 -5 -17 83
-16 144 3 27 8 70 15 95 15 25 0 68 7 95 15 68 21 256 20 317 -1 54 -18 77
-14 77 15 0 12 11 26 26 34 36 19 16 29 -31 16 -21 -6 -50 -8 -64 -4 -170 41
-406 55 -496 30z"/>
<path d="M6100 705 c7 -8 20 -15 29 -15 13 1 13 3 -3 15 -26 19 -42 19 -26 0z"/>
<path d="M6590 689 c-41 -10 -87 -19 -101 -19 -15 0 -32 -7 -39 -15 -16 -19 1
-19 90 0 101 22 112 24 165 31 43 6 46 8 25 15 -38 11 -58 9 -140 -12z"/>
<path d="M5530 670 c-18 -11 -17 -12 45 -45 34 -18 72 -28 120 -32 52 -5 73
-11 83 -25 7 -10 22 -18 32 -18 28 0 71 22 67 34 -4 13 -65 34 -104 35 -19 1
-37 8 -45 20 -10 14 -27 19 -70 20 -31 0 -68 5 -83 11 -31 12 -27 12 -45 0z"/>
<path d="M3292 557 c6 -68 45 -147 73 -147 17 0 21 35 5 45 -17 10 -11 43 8
50 29 8 65 -15 139 -91 77 -77 168 -154 183 -154 20 0 9 23 -29 59 -21 20 -42
43 -47 52 -5 9 -46 57 -92 106 -72 78 -91 93 -151 116 -96 38 -95 38 -89 -36z"/>
<path d="M2746 582 c-55 -1 -105 -7 -111 -12 -6 -5 -34 -12 -63 -16 -28 -3
-50 -10 -47 -14 2 -3 28 -3 57 2 138 21 200 27 292 28 55 0 97 2 95 4 -8 7
-126 11 -223 8z"/>
<path d="M3030 573 c8 -4 33 -21 56 -40 48 -39 54 -40 54 -13 0 26 -55 60 -95
59 -17 0 -23 -3 -15 -6z"/>
<path d="M3230 415 c0 -25 4 -53 8 -63 5 -9 15 -30 23 -47 8 -16 22 -31 32
-33 25 -5 22 31 -9 79 -14 23 -28 56 -31 75 -8 49 -23 42 -23 -11z"/>
<path d="M2790 426 c-25 -8 -58 -17 -74 -20 -48 -12 -23 -16 95 -19 131 -3
239 -29 247 -59 7 -27 32 -8 48 37 19 56 11 65 -55 65 -31 0 -92 2 -136 5 -53
3 -95 0 -125 -9z"/>
<path d="M3450 304 c0 -13 35 -33 56 -34 21 0 39 22 27 34 -8 8 -83 8 -83 0z"/>
<path d="M3550 235 c23 -24 60 -34 60 -16 0 12 -46 41 -66 41 -15 0 -14 -4 6
-25z"/>
</g>
</svg>
